<svg width="64" height="64" viewBox="0 0 64 64" fill="none" xmlns="http://www.w3.org/2000/svg">
<rect width="64" height="64" fill="white"/>
<path d="M15.4646 12.4445H49.9937C50.5438 12.4403 51.0892 12.5476 51.5967 12.7598C52.1043 12.9721 52.5637 13.285 52.9471 13.6796C53.7279 14.5001 54.2509 15.5318 54.4511 16.6466L60.3761 46.2716C60.4212 46.4998 60.4441 46.7318 60.4445 46.9644C60.4366 47.4687 60.3282 47.9662 60.1255 48.428C59.9228 48.8898 59.6299 49.3064 59.264 49.6535C58.5889 50.317 57.7354 50.7698 56.8074 50.957C56.5075 51.0183 56.202 51.0488 55.8959 51.0481H21.8271C21.7086 51.0481 21.5901 51.0481 21.4762 51.0481H7.10578C5.11407 50.8293 4.33014 49.3618 4.45776 47.4247L10.0318 19.167C10.36 17.9046 10.6653 16.5828 11.0527 15.5209C11.1161 15.3212 11.1969 15.1275 11.2943 14.9421L11.3171 14.8965C11.5161 14.5108 11.7762 14.1599 12.0873 13.8573C12.7468 13.2035 13.578 12.75 14.4847 12.5493C14.8067 12.48 15.1352 12.4448 15.4646 12.4445ZM49.9937 15.4115H15.4646C15.3467 15.4117 15.2291 15.4239 15.1136 15.448C14.7692 15.5249 14.4534 15.697 14.2021 15.9448C14.0369 16.0889 13.934 16.2915 13.915 16.5099C14.6305 24.1076 18.541 38.1043 20.2957 46.2397C20.3922 46.7876 20.6401 47.2976 21.0113 47.7119C21.1206 47.8249 21.2517 47.9146 21.3966 47.9757C21.5415 48.0368 21.6972 48.068 21.8545 48.0674H55.9597C56.0652 48.0659 56.1705 48.0552 56.2742 48.0355C56.6318 47.9631 56.961 47.789 57.2222 47.5341C57.3934 47.3815 57.5008 47.1699 57.523 46.9416V46.8277L51.598 17.2027C51.5121 16.6627 51.2715 16.1593 50.9052 15.7533C50.7946 15.6376 50.6616 15.5457 50.5143 15.483C50.367 15.4203 50.2084 15.3882 50.0484 15.3887L49.9937 15.4115Z" fill="#BF1023"/>
<path d="M28 31L34.5 35.5L44.5 26" stroke="#BF1023" stroke-width="2.5" stroke-linecap="round"/>
</svg>
