<svg width="64" height="64" viewBox="0 0 64 64" fill="none" xmlns="http://www.w3.org/2000/svg">
<rect width="64" height="64" fill="white"/>
<path fill-rule="evenodd" clip-rule="evenodd" d="M34.9286 12.2383H24.7143C22.5051 12.2383 20.7143 14.0291 20.7143 16.2383V24.143H38.9286V16.2383C38.9286 14.0291 37.1377 12.2383 34.9286 12.2383ZM14.7143 16.2383V24.143H13C10.2386 24.143 8 26.3816 8 29.143V53.8335C8 56.5949 10.2386 58.8335 13 58.8335H47.7619C50.5233 58.8335 52.7619 56.5949 52.7619 53.8335V29.143C52.7619 26.3816 50.5233 24.143 47.7619 24.143H44.9286V16.2383C44.9286 10.7154 40.4514 6.23828 34.9286 6.23828H24.7143C19.1914 6.23828 14.7143 10.7154 14.7143 16.2383ZM30.1429 36.4526C29.0383 36.4526 28.1429 37.348 28.1429 38.4526V44.524C28.1429 45.6286 29.0383 46.524 30.1429 46.524H30.619C31.7236 46.524 32.619 45.6286 32.619 44.524V38.4526C32.619 37.348 31.7236 36.4526 30.619 36.4526H30.1429Z" fill="#BF1023"/>
<mask id="path-2-inside-1_146_1247" fill="white">
<path fill-rule="evenodd" clip-rule="evenodd" d="M37.1666 10H26.9523C24.7432 10 22.9523 11.7909 22.9523 14V21.9048H41.1666V14C41.1666 11.7909 39.3757 10 37.1666 10ZM16.9523 14V21.9048H15.238C12.4766 21.9048 10.238 24.1433 10.238 26.9048V51.5952C10.238 54.3567 12.4766 56.5952 15.238 56.5952H49.9999C52.7614 56.5952 54.9999 54.3567 54.9999 51.5952V26.9048C54.9999 24.1433 52.7614 21.9048 50 21.9048H47.1666V14C47.1666 8.47715 42.6895 4 37.1666 4H26.9523C21.4295 4 16.9523 8.47715 16.9523 14ZM32.3809 34.2143C31.2763 34.2143 30.3809 35.1097 30.3809 36.2143V42.2857C30.3809 43.3903 31.2763 44.2857 32.3809 44.2857H32.8571C33.9617 44.2857 34.8571 43.3903 34.8571 42.2857V36.2143C34.8571 35.1097 33.9617 34.2143 32.8571 34.2143H32.3809Z"/>
</mask>
<path fill-rule="evenodd" clip-rule="evenodd" d="M37.1666 10H26.9523C24.7432 10 22.9523 11.7909 22.9523 14V21.9048H41.1666V14C41.1666 11.7909 39.3757 10 37.1666 10ZM16.9523 14V21.9048H15.238C12.4766 21.9048 10.238 24.1433 10.238 26.9048V51.5952C10.238 54.3567 12.4766 56.5952 15.238 56.5952H49.9999C52.7614 56.5952 54.9999 54.3567 54.9999 51.5952V26.9048C54.9999 24.1433 52.7614 21.9048 50 21.9048H47.1666V14C47.1666 8.47715 42.6895 4 37.1666 4H26.9523C21.4295 4 16.9523 8.47715 16.9523 14ZM32.3809 34.2143C31.2763 34.2143 30.3809 35.1097 30.3809 36.2143V42.2857C30.3809 43.3903 31.2763 44.2857 32.3809 44.2857H32.8571C33.9617 44.2857 34.8571 43.3903 34.8571 42.2857V36.2143C34.8571 35.1097 33.9617 34.2143 32.8571 34.2143H32.3809Z" fill="white"/>
<path d="M22.9523 21.9048H21.4523V23.4048H22.9523V21.9048ZM41.1666 21.9048V23.4048H42.6666V21.9048H41.1666ZM16.9523 21.9048V23.4048H18.4523V21.9048H16.9523ZM47.1666 21.9048H45.6666V23.4048H47.1666V21.9048ZM26.9523 11.5H37.1666V8.5H26.9523V11.5ZM24.4523 14C24.4523 12.6193 25.5716 11.5 26.9523 11.5V8.5C23.9148 8.5 21.4523 10.9624 21.4523 14H24.4523ZM24.4523 21.9048V14H21.4523V21.9048H24.4523ZM41.1666 20.4048H22.9523V23.4048H41.1666V20.4048ZM39.6666 14V21.9048H42.6666V14H39.6666ZM37.1666 11.5C38.5473 11.5 39.6666 12.6193 39.6666 14H42.6666C42.6666 10.9624 40.2042 8.5 37.1666 8.5V11.5ZM18.4523 21.9048V14H15.4523V21.9048H18.4523ZM15.238 23.4048H16.9523V20.4048H15.238V23.4048ZM11.738 26.9048C11.738 24.9718 13.305 23.4048 15.238 23.4048V20.4048C11.6482 20.4048 8.73804 23.3149 8.73804 26.9048H11.738ZM11.738 51.5952V26.9048H8.73804V51.5952H11.738ZM15.238 55.0952C13.305 55.0952 11.738 53.5282 11.738 51.5952H8.73804C8.73804 55.1851 11.6482 58.0952 15.238 58.0952V55.0952ZM49.9999 55.0952H15.238V58.0952H49.9999V55.0952ZM53.4999 51.5952C53.4999 53.5282 51.9329 55.0952 49.9999 55.0952V58.0952C53.5898 58.0952 56.4999 55.1851 56.4999 51.5952H53.4999ZM53.4999 26.9048V51.5952H56.4999V26.9048H53.4999ZM50 23.4048C51.9329 23.4048 53.4999 24.9718 53.4999 26.9048H56.4999C56.4999 23.3149 53.5898 20.4048 50 20.4048V23.4048ZM47.1666 23.4048H50V20.4048H47.1666V23.4048ZM45.6666 14V21.9048H48.6666V14H45.6666ZM37.1666 5.5C41.861 5.5 45.6666 9.30558 45.6666 14H48.6666C48.6666 7.64873 43.5179 2.5 37.1666 2.5V5.5ZM26.9523 5.5H37.1666V2.5H26.9523V5.5ZM18.4523 14C18.4523 9.30558 22.2579 5.5 26.9523 5.5V2.5C20.601 2.5 15.4523 7.64872 15.4523 14H18.4523ZM31.8809 36.2143C31.8809 35.9381 32.1048 35.7143 32.3809 35.7143V32.7143C30.4479 32.7143 28.8809 34.2813 28.8809 36.2143H31.8809ZM31.8809 42.2857V36.2143H28.8809V42.2857H31.8809ZM32.3809 42.7857C32.1048 42.7857 31.8809 42.5619 31.8809 42.2857H28.8809C28.8809 44.2187 30.4479 45.7857 32.3809 45.7857V42.7857ZM32.8571 42.7857H32.3809V45.7857H32.8571V42.7857ZM33.3571 42.2857C33.3571 42.5619 33.1332 42.7857 32.8571 42.7857V45.7857C34.7901 45.7857 36.3571 44.2187 36.3571 42.2857H33.3571ZM33.3571 36.2143V42.2857H36.3571V36.2143H33.3571ZM32.8571 35.7143C33.1332 35.7143 33.3571 35.9381 33.3571 36.2143H36.3571C36.3571 34.2813 34.7901 32.7143 32.8571 32.7143V35.7143ZM32.3809 35.7143H32.8571V32.7143H32.3809V35.7143Z" fill="#BF1023" mask="url(#path-2-inside-1_146_1247)"/>
</svg>
