<svg width="72" height="73" viewBox="0 0 72 73" fill="none" xmlns="http://www.w3.org/2000/svg">
<path d="M46.0406 6.32176C40.8656 6.68739 36.7312 7.55926 34.3968 8.76864C33.0187 9.47176 32.4562 9.97801 32.0343 10.8218L31.6687 11.5249V20.7499C31.6687 29.553 31.6687 30.003 31.4156 30.003C31.2749 30.003 30.5156 29.9186 29.6999 29.8061C24.8624 29.1593 18.3937 29.1593 13.3874 29.8061C7.6218 30.5374 4.10618 31.9718 3.06555 33.9968C2.7843 34.503 2.7843 34.6999 2.81243 38.0186C2.84055 41.9843 2.86868 42.0968 3.9093 43.053C4.5843 43.6436 6.29993 44.5155 7.59368 44.9093L8.5218 45.1905V47.4405C8.5218 48.678 8.57805 49.9436 8.66243 50.2249C8.7468 50.5061 9.02805 50.9843 9.33743 51.3218L9.8718 51.8843L8.94368 52.1936C7.64993 52.6155 6.41243 53.4593 6.01868 54.2186C5.7093 54.8093 5.7093 54.9218 5.7093 58.1843C5.7093 61.8968 5.73743 62.178 6.55305 62.9936C8.88743 65.4124 17.0999 67.0155 26.0156 66.7624C34.9874 66.5093 41.2593 64.878 42.8343 62.3749C43.0593 62.0093 43.1718 61.6155 43.1999 60.7436L43.2562 59.6186L44.2124 59.3093C44.7468 59.1405 45.5906 58.803 46.0968 58.5499L47.0531 58.128H49.6968C58.1624 58.2124 65.6156 56.7499 68.0624 54.5561C69.2999 53.4593 69.1874 55.5405 69.1874 32.0843C69.1874 18.6405 69.1593 11.1874 69.0468 10.9624C68.8218 10.3718 67.8374 9.41551 66.9093 8.88114C63.2812 6.91239 54.1124 5.75926 46.0406 6.32176ZM55.9968 9.30301C60.3843 9.66864 64.9406 10.7093 66.0937 11.5811C66.3749 11.8061 66.4031 11.8624 66.2343 12.0874C65.7562 12.6499 63.2531 13.5218 60.5531 14.028C57.5437 14.5905 55.2937 14.7593 50.6812 14.7593C46.1531 14.7593 44.3812 14.6749 41.2031 14.1405C38.0249 13.6343 34.7062 12.5936 34.7062 12.0593C34.7062 11.3561 37.9687 10.2593 41.7093 9.66864C45.7593 9.07801 51.3843 8.90926 55.9968 9.30301ZM37.3499 16.278C38.8124 16.6718 41.7093 17.178 44.0718 17.4593C46.6031 17.7405 55.0406 17.6843 57.4874 17.403C61.0593 16.953 63.9562 16.3343 65.4749 15.6874C65.8406 15.5468 66.1781 15.4061 66.2343 15.4061C66.2906 15.4061 66.3468 16.5311 66.3468 18.0499V20.6936L65.7281 21.0874C65.3906 21.3124 64.5187 21.678 63.8156 21.903C57.1499 24.0405 44.1843 24.0686 37.2656 21.9593C35.8593 21.5374 34.8749 21.0593 34.7062 20.6936C34.6218 20.5249 34.5656 19.3718 34.5656 17.853V15.2936L35.3531 15.6311C35.7468 15.7718 36.6749 16.053 37.3499 16.278ZM37.3499 24.9405C38.8124 25.3343 41.7093 25.8405 44.0718 26.1218C46.2374 26.3468 54.5906 26.3749 56.7843 26.1218C60.4124 25.728 64.4624 24.8843 65.6437 24.2655C65.8687 24.153 66.1218 24.0686 66.2062 24.0686C66.2906 24.0686 66.3468 24.9686 66.3468 26.7124V29.3561L65.7281 29.7499C65.3906 29.9749 64.5187 30.3405 63.8156 30.5655C57.1499 32.703 44.1843 32.7311 37.2656 30.6218C35.8593 30.1999 34.8749 29.7218 34.7062 29.3561C34.6218 29.1874 34.5656 28.0343 34.5656 26.5155V23.9561L35.3531 24.2936C35.7468 24.4343 36.6749 24.7155 37.3499 24.9405ZM27.7031 32.4499C32.0906 32.928 36.0281 33.8561 37.2093 34.6999C37.5187 34.9249 37.5187 34.9249 37.2656 35.2061C36.7312 35.7968 34.4249 36.6124 31.7531 37.1186C25.7343 38.2718 16.8749 38.2155 10.6874 36.978C7.98743 36.4436 5.5968 35.5155 5.7093 35.1218C5.79368 34.8686 7.03118 34.2499 8.32493 33.828C10.4624 33.1249 13.6687 32.5905 17.0437 32.3374C19.1249 32.1686 25.8468 32.253 27.7031 32.4499ZM66.3187 35.3749L66.2906 38.0468L65.8406 38.3561C64.6593 39.1718 61.0031 40.0718 57.0937 40.5218C54.2812 40.8593 47.0812 40.8593 43.2281 40.5218C41.7093 40.4093 40.4437 40.2686 40.4156 40.2686C40.4156 40.2405 40.3874 38.8624 40.3593 37.2311C40.3312 34.6155 40.3593 34.2499 40.5281 34.3061C40.6406 34.3343 41.4281 34.4468 42.2999 34.5593C47.7281 35.2905 54.9843 35.2061 60.1593 34.3624C62.0437 34.053 64.5468 33.4343 65.4468 33.0124C65.7843 32.8718 66.1218 32.7311 66.2062 32.7311C66.3187 32.703 66.3468 33.2936 66.3187 35.3749ZM7.93118 39.228C8.38118 39.3686 9.47805 39.6218 10.3781 39.8186C18.3937 41.4499 29.8124 41.0843 35.9718 38.9749L37.5187 38.4405V39.5374C37.5187 40.6343 37.5187 40.6624 37.0687 41.0561C35.8874 42.0968 31.4437 43.1093 26.3812 43.5311C24.1312 43.6999 19.0124 43.6999 16.6781 43.5311C12.5156 43.1936 8.54993 42.4061 6.77805 41.5061L5.79368 41.028L5.76555 39.7061L5.73743 38.3843L6.44055 38.6655C6.77805 38.8343 7.48118 39.0874 7.93118 39.228ZM66.3468 43.9811C66.3468 46.9624 66.4031 46.7936 65.0812 47.3843C62.4374 48.5655 57.7968 49.2968 52.1718 49.4655L49.0218 49.5499V49.2405C49.0218 48.3686 47.9812 47.0749 46.7718 46.4843L46.1812 46.203V44.9093V43.6155L49.6687 43.6436C53.4374 43.6999 56.2499 43.5593 59.2593 43.1093C61.4812 42.7999 64.2374 42.153 65.2781 41.703C65.6718 41.5343 66.0937 41.3655 66.2062 41.3655C66.2906 41.3936 66.3468 41.9843 66.3468 43.9811ZM41.3437 43.2499C43.1718 43.4186 43.4812 43.6155 42.6937 44.1218C41.4843 44.9093 38.3343 45.7249 34.8468 46.1749C32.2031 46.5405 25.2281 46.8218 25.4531 46.5686C25.4812 46.5405 26.4656 46.3999 27.6187 46.2874C32.7093 45.8093 36.5624 44.8249 38.4468 43.5311C38.9531 43.1936 39.2906 43.0249 39.5437 43.053C39.7406 43.1093 40.5281 43.1936 41.3437 43.2499ZM14.3437 48.0593C16.0031 48.5093 18.2249 48.8749 20.8406 49.1843C23.7374 49.5218 30.9937 49.5218 33.9468 49.1843C37.5187 48.7905 41.0062 48.0311 42.6093 47.328L43.1718 47.0749V48.2561C43.1718 49.6624 43.1718 49.6905 41.7656 50.3093C39.8812 51.153 35.9999 51.9124 31.9499 52.2218C29.1093 52.4186 22.8093 52.3061 20.3062 51.9968C16.6781 51.5749 13.0499 50.6749 12.0093 49.9718C11.5874 49.6624 11.5874 49.6624 11.5312 48.3686L11.5031 47.0468L12.2906 47.3843C12.7124 47.5811 13.6406 47.8905 14.3437 48.0593ZM66.3468 51.1811C66.3468 52.1936 66.3187 52.3343 66.0374 52.6155C65.1374 53.4593 61.8187 54.3874 57.7406 54.8655C56.1656 55.0624 51.6656 55.3155 49.8656 55.3436H49.0218V53.853V52.3624H51.4406C56.6437 52.3624 62.9156 51.4624 65.4187 50.3374C66.3468 49.9155 66.3468 49.9155 66.3468 51.1811ZM46.1812 54.0218C46.1812 55.3436 46.0687 55.5124 44.8031 56.0468C40.4437 57.9874 30.4312 58.7186 22.4156 57.678C19.2374 57.2843 15.9749 56.4405 14.8218 55.7374C14.3718 55.4561 14.3437 55.3999 14.3437 54.6686V53.9093L15.8062 54.2186C19.5187 55.0061 24.7218 55.3718 30.6562 55.2874C37.0406 55.1749 41.8781 54.528 45.0843 53.2905C45.5624 53.0936 46.0124 52.953 46.0687 52.9249C46.1249 52.8968 46.1812 53.3749 46.1812 54.0218ZM11.5312 55.428C11.5593 55.9343 11.5593 56.3843 11.5312 56.4124C11.5031 56.4686 9.59055 55.878 9.14055 55.653L8.7468 55.4561L9.14055 55.2311C9.61868 54.978 10.9406 54.528 11.2499 54.528C11.4468 54.4999 11.5031 54.6686 11.5312 55.428ZM10.0406 58.8874C12.4593 59.6749 15.6937 60.2655 20.0531 60.6874C23.6249 61.053 34.3124 61.0249 37.1812 60.6874C38.3062 60.5468 39.4593 60.378 39.7968 60.3218C40.3593 60.2374 40.3593 60.2374 40.3593 60.603C40.3593 61.1655 39.5718 61.6999 37.7999 62.2624C31.8374 64.203 20.3624 64.4561 13.0781 62.8249C11.2499 62.403 9.5343 61.8124 8.94368 61.3905C8.54993 61.1093 8.54993 61.0811 8.54993 59.7593C8.54993 59.028 8.57805 58.4093 8.60618 58.4093C8.60618 58.4374 9.25305 58.6343 10.0406 58.8874Z" fill="#BF1023"/>
</svg>
