<svg width="50" height="44" viewBox="0 0 50 44" fill="none" xmlns="http://www.w3.org/2000/svg">
<path fill-rule="evenodd" clip-rule="evenodd" d="M16.492 0.479511C15.0617 1.01884 12.8296 2.20349 11.2143 3.28036C9.28186 4.56887 6.62677 7.02621 5.30449 8.75013C2.92947 11.8465 1.68705 14.9958 0.97308 19.7297C0.492973 22.913 0.458786 23.7212 0.41449 32.9607C0.367374 42.7871 0.324451 42.1703 1.10947 42.9489C1.86698 43.7003 1.41879 43.6665 10.6451 43.6665C19.5562 43.6665 19.2443 43.6846 19.9805 43.1275C20.1684 42.9853 20.4398 42.6707 20.5835 42.4283L20.8446 41.9876L20.8709 33.6155L20.8972 25.2433L20.6882 24.7614C20.4428 24.1957 19.7693 23.5652 19.2606 23.425C19.0521 23.3676 17.3143 23.3283 14.9686 23.328L11.027 23.3275V22.7242C11.027 21.3506 11.4218 19.0196 11.9161 17.4751C12.5731 15.4219 13.5757 13.7663 15.0279 12.3365C16.2128 11.1701 17.5847 10.2436 19.5133 9.30768C20.9236 8.62336 21.1351 8.45353 21.5226 7.69451C21.6253 7.49353 21.6936 7.13531 21.697 6.78121C21.7019 6.26857 21.6374 6.06043 21.161 5.04911C19.3482 1.20091 19.2 0.956726 18.4427 0.573536C17.8874 0.292557 17.09 0.254177 16.492 0.479511ZM45.095 0.409214C44.559 0.507366 42.0384 1.73075 40.6735 2.55525C36.5327 5.05668 33.3004 8.40793 31.4089 12.1608C30.0258 14.9049 29.3407 17.677 28.8582 22.4822C28.73 23.7591 28.6932 25.6684 28.6586 32.864C28.6107 42.7983 28.5674 42.1692 29.3535 42.9489C30.1109 43.7002 29.6634 43.6665 38.884 43.6665C47.8716 43.6665 47.5565 43.6859 48.2874 43.0884C48.4791 42.9316 48.7487 42.579 48.8865 42.3047L49.137 41.806L49.1349 33.5021C49.1328 25.3556 49.129 25.1901 48.9357 24.7665C48.7093 24.2702 48.3639 23.8837 47.8796 23.5846C47.5489 23.3802 47.445 23.3742 43.3832 23.3275L39.2253 23.2794L39.2548 22.512C39.3311 20.5296 39.8136 18.1703 40.4837 16.5037C41.1727 14.79 41.9978 13.54 43.2501 12.3132C44.3897 11.1966 45.5532 10.401 47.3796 9.48954C49.1305 8.61586 49.6198 8.2132 49.818 7.48328C50.0525 6.61936 49.929 6.1841 48.7746 3.80379C48.1303 2.47546 47.5586 1.42954 47.338 1.17587C46.7778 0.531445 45.9579 0.251221 45.095 0.409214Z" fill="#C9C9C9"/>
</svg>
