<svg width="136" height="41" viewBox="0 0 136 41" fill="none" xmlns="http://www.w3.org/2000/svg">
<g clip-path="url(#clip0_146_901)">
<path d="M131.161 40.5H4.76403C2.13772 40.5 0 38.372 0 35.767V5.226C0 2.62 2.13772 0.5 4.76403 0.5H131.161C133.787 0.5 136 2.62 136 5.226V35.767C136 38.372 133.787 40.5 131.161 40.5Z" fill="#100F0D"/>
<path d="M135.025 35.7677C135.025 37.8837 133.298 39.5976 131.162 39.5976H4.76404C2.62935 39.5976 0.896606 37.8837 0.896606 35.7677V5.22465C0.896606 3.10965 2.62935 1.38965 4.76404 1.38965H131.161C133.298 1.38965 135.024 3.10965 135.024 5.22465L135.025 35.7677Z" fill="#100F0D"/>
<path d="M30.3512 20.4131C30.322 17.1901 33.0098 15.6221 33.1327 15.5491C31.6105 13.3461 29.2511 13.0451 28.422 13.0211C26.4405 12.8141 24.5183 14.1981 23.5089 14.1981C22.4793 14.1981 20.9249 13.0411 19.2496 13.0751C17.0937 13.1081 15.0769 14.3471 13.9708 16.2711C11.688 20.1941 13.3905 25.9591 15.5776 29.1301C16.6716 30.6831 17.95 32.4171 19.6233 32.3561C21.2604 32.2891 21.8719 31.3201 23.8474 31.3201C25.8048 31.3201 26.379 32.3561 28.0856 32.3171C29.8425 32.2891 30.9486 30.7571 32.0044 29.1901C33.2687 27.4101 33.7764 25.6571 33.7966 25.5671C33.7553 25.5531 30.3845 24.2761 30.3512 20.4131Z" fill="white"/>
<path d="M27.1275 10.8058C28.008 9.7128 28.6104 8.2258 28.4432 6.7168C27.1688 6.7728 25.5751 7.5918 24.6573 8.6608C23.8454 9.6028 23.12 11.1468 23.3074 12.5988C24.7389 12.7048 26.2087 11.8818 27.1275 10.8058Z" fill="white"/>
<path d="M54.0423 32.0043H51.7545L50.5013 28.0953H46.1453L44.9515 32.0043H42.7241L47.0399 18.6963H49.7055L54.0423 32.0043ZM50.1235 26.4553L48.9902 22.9803C48.8703 22.6253 48.6457 21.7893 48.3142 20.4733H48.2739C48.142 21.0393 47.9294 21.8753 47.6372 22.9803L46.5241 26.4553H50.1235Z" fill="white"/>
<path d="M65.141 27.0879C65.141 28.7199 64.6967 30.0099 63.8082 30.9569C63.0123 31.7999 62.0241 32.2209 60.8444 32.2209C59.571 32.2209 58.6563 31.7669 58.0992 30.8589H58.0589V35.9139H55.9111V25.5669C55.9111 24.5409 55.8839 23.4879 55.8315 22.4079H57.7204L57.8403 23.9289H57.8806C58.5969 22.7829 59.6839 22.2109 61.1426 22.2109C62.283 22.2109 63.235 22.6579 63.9966 23.5529C64.7602 24.4489 65.141 25.6269 65.141 27.0879ZM62.9529 27.1659C62.9529 26.2319 62.7414 25.4619 62.3162 24.8559C61.8518 24.2239 61.2282 23.9079 60.4465 23.9079C59.9166 23.9079 59.435 24.0839 59.0049 24.4309C58.5737 24.7809 58.2916 25.2379 58.1597 25.8039C58.0932 26.0679 58.0599 26.2839 58.0599 26.4539V28.0539C58.0599 28.7519 58.2755 29.3409 58.7067 29.8219C59.1379 30.3029 59.698 30.5429 60.387 30.5429C61.196 30.5429 61.8256 30.2329 62.2759 29.6149C62.7272 28.9959 62.9529 28.1799 62.9529 27.1659Z" fill="white"/>
<path d="M76.2597 27.0879C76.2597 28.7199 75.8155 30.0099 74.9259 30.9569C74.1311 31.7999 73.1428 32.2209 71.9631 32.2209C70.6898 32.2209 69.7751 31.7669 69.219 30.8589H69.1787V35.9139H67.0309V25.5669C67.0309 24.5409 67.0037 23.4879 66.9513 22.4079H68.8402L68.9601 23.9289H69.0004C69.7156 22.7829 70.8026 22.2109 72.2623 22.2109C73.4017 22.2109 74.3537 22.6579 75.1173 23.5529C75.8779 24.4489 76.2597 25.6269 76.2597 27.0879ZM74.0717 27.1659C74.0717 26.2319 73.8591 25.4619 73.434 24.8559C72.9695 24.2239 72.348 23.9079 71.5652 23.9079C71.0343 23.9079 70.5538 24.0839 70.1226 24.4309C69.6914 24.7809 69.4104 25.2379 69.2784 25.8039C69.2129 26.0679 69.1787 26.2839 69.1787 26.4539V28.0539C69.1787 28.7519 69.3943 29.3409 69.8234 29.8219C70.2546 30.3019 70.8147 30.5429 71.5058 30.5429C72.3147 30.5429 72.9444 30.2329 73.3947 29.6149C73.846 28.9959 74.0717 28.1799 74.0717 27.1659Z" fill="white"/>
<path d="M88.6911 28.272C88.6911 29.404 88.2952 30.325 87.5003 31.036C86.6269 31.813 85.4109 32.201 83.8485 32.201C82.4058 32.201 81.2493 31.925 80.3739 31.372L80.8716 29.595C81.8145 30.161 82.8491 30.445 83.9764 30.445C84.7853 30.445 85.415 30.263 85.8673 29.901C86.3176 29.539 86.5423 29.053 86.5423 28.447C86.5423 27.907 86.3569 27.452 85.9852 27.083C85.6154 26.714 84.9979 26.371 84.1356 26.054C81.7883 25.185 80.6157 23.912 80.6157 22.238C80.6157 21.144 81.0267 20.247 81.8498 19.549C82.6698 18.85 83.7638 18.501 85.1319 18.501C86.3519 18.501 87.3653 18.712 88.1743 19.133L87.6373 20.871C86.8818 20.463 86.0275 20.259 85.0714 20.259C84.3159 20.259 83.7256 20.444 83.3024 20.812C82.9448 21.141 82.7655 21.542 82.7655 22.017C82.7655 22.543 82.97 22.978 83.381 23.32C83.7386 23.636 84.3884 23.978 85.3314 24.347C86.4848 24.808 87.3321 25.347 87.8771 25.965C88.4201 26.581 88.6911 27.352 88.6911 28.272Z" fill="white"/>
<path d="M95.7923 24.0076H93.4249V28.6666C93.4249 29.8516 93.842 30.4436 94.6781 30.4436C95.0619 30.4436 95.3803 30.4106 95.6321 30.3446L95.6916 31.9636C95.2685 32.1206 94.7114 32.1996 94.0213 32.1996C93.1731 32.1996 92.5102 31.9426 92.0317 31.4296C91.5552 30.9156 91.3154 30.0536 91.3154 28.8426V24.0056H89.905V22.4056H91.3154V20.6486L93.4249 20.0166V22.4056H95.7923V24.0076Z" fill="white"/>
<path d="M106.474 27.1269C106.474 28.6019 106.049 29.8129 105.201 30.7599C104.311 31.7349 103.13 32.2209 101.658 32.2209C100.24 32.2209 99.1107 31.7539 98.2685 30.8199C97.4263 29.8859 97.0052 28.7069 97.0052 27.2859C97.0052 25.7989 97.4384 24.5809 98.3078 23.6339C99.1752 22.6859 100.346 22.2119 101.818 22.2119C103.236 22.2119 104.377 22.6789 105.239 23.6139C106.063 24.5209 106.474 25.6919 106.474 27.1269ZM104.245 27.1959C104.245 26.3109 104.055 25.5519 103.669 24.9189C103.219 24.1529 102.575 23.7709 101.741 23.7709C100.878 23.7709 100.222 24.1539 99.7716 24.9189C99.3858 25.5529 99.1954 26.3239 99.1954 27.2359C99.1954 28.1209 99.3858 28.8799 99.7716 29.5119C100.236 30.2779 100.885 30.6599 101.722 30.6599C102.542 30.6599 103.186 30.2699 103.65 29.4919C104.046 28.8469 104.245 28.0799 104.245 27.1959Z" fill="white"/>
<path d="M113.455 24.2829C113.243 24.2439 113.016 24.2239 112.778 24.2239C112.023 24.2239 111.438 24.5069 111.027 25.0739C110.67 25.5739 110.49 26.2059 110.49 26.9689V32.0039H108.344L108.364 25.4299C108.364 24.3239 108.337 23.3169 108.283 22.4089H110.154L110.233 24.2449H110.292C110.519 23.6139 110.876 23.1059 111.366 22.7249C111.844 22.3819 112.361 22.2109 112.918 22.2109C113.117 22.2109 113.296 22.2249 113.455 22.2499V24.2829Z" fill="white"/>
<path d="M123.061 26.7524C123.061 27.1344 123.036 27.4564 122.982 27.7194H116.539C116.564 28.6674 116.875 29.3924 117.474 29.8924C118.017 30.3394 118.719 30.5634 119.581 30.5634C120.535 30.5634 121.406 30.4124 122.188 30.1094L122.525 31.5894C121.61 31.9854 120.53 32.1824 119.284 32.1824C117.785 32.1824 116.608 31.7444 115.752 30.8694C114.898 29.9944 114.47 28.8194 114.47 27.3454C114.47 25.8984 114.868 24.6934 115.665 23.7324C116.499 22.7064 117.626 22.1934 119.044 22.1934C120.438 22.1934 121.492 22.7064 122.209 23.7324C122.776 24.5474 123.061 25.5554 123.061 26.7524ZM121.013 26.1994C121.027 25.5674 120.887 25.0214 120.596 24.5604C120.224 23.9674 119.653 23.6714 118.884 23.6714C118.182 23.6714 117.611 23.9604 117.175 24.5404C116.817 25.0014 116.604 25.5544 116.539 26.1984L121.013 26.1994Z" fill="white"/>
<path d="M49.4133 10.5087C49.4133 11.6857 49.0577 12.5717 48.3475 13.1667C47.6896 13.7157 46.7548 13.9907 45.5439 13.9907C44.9435 13.9907 44.4297 13.9647 43.9995 13.9127V7.4817C44.5606 7.3917 45.1651 7.3457 45.8179 7.3457C46.9714 7.3457 47.8408 7.5947 48.4271 8.0927C49.0839 8.6557 49.4133 9.4607 49.4133 10.5087ZM48.3001 10.5377C48.3001 9.7747 48.0966 9.1897 47.6896 8.7817C47.2827 8.3747 46.6883 8.1707 45.9055 8.1707C45.5731 8.1707 45.29 8.1927 45.0553 8.2387V13.1277C45.1852 13.1477 45.423 13.1567 45.7685 13.1567C46.5765 13.1567 47.2 12.9337 47.6393 12.4877C48.0785 12.0417 48.3001 11.3917 48.3001 10.5377Z" fill="white"/>
<path d="M55.3158 11.537C55.3158 12.262 55.1072 12.856 54.6901 13.322C54.2529 13.801 53.6737 14.04 52.9504 14.04C52.2532 14.04 51.6982 13.811 51.2841 13.351C50.8711 12.892 50.6646 12.313 50.6646 11.615C50.6646 10.885 50.8771 10.286 51.3043 9.82105C51.7314 9.35605 52.3056 9.12305 53.0289 9.12305C53.7261 9.12305 54.2862 9.35205 54.7103 9.81105C55.1133 10.257 55.3158 10.833 55.3158 11.537ZM54.2207 11.571C54.2207 11.136 54.126 10.763 53.9376 10.452C53.716 10.076 53.4007 9.88805 52.9907 9.88805C52.5665 9.88805 52.2442 10.076 52.0225 10.452C51.8331 10.763 51.7395 11.142 51.7395 11.59C51.7395 12.025 51.8342 12.398 52.0225 12.709C52.2512 13.085 52.5696 13.273 52.9806 13.273C53.3835 13.273 53.6999 13.082 53.9275 12.699C54.123 12.382 54.2207 12.006 54.2207 11.571Z" fill="white"/>
<path d="M63.23 9.21875L61.744 13.9327H60.7769L60.1614 11.8857C60.0052 11.3747 59.8783 10.8667 59.7796 10.3627H59.7604C59.6688 10.8807 59.5418 11.3877 59.3786 11.8857L58.7248 13.9327H57.7466L56.3494 9.21875H57.4343L57.9713 11.4597C58.1012 11.9897 58.208 12.4947 58.2937 12.9727H58.3128C58.3914 12.5787 58.5213 12.0768 58.7047 11.4698L59.3786 9.21975H60.239L60.8847 11.4217C61.0409 11.9587 61.1678 12.4757 61.2655 12.9737H61.2947C61.3663 12.4887 61.474 11.9717 61.6171 11.4217L62.1933 9.21975H63.23V9.21875Z" fill="white"/>
<path d="M68.7031 13.9331H67.6474V11.2331C67.6474 10.4011 67.329 9.98512 66.6903 9.98512C66.377 9.98512 66.1242 10.0991 65.9277 10.3281C65.7333 10.5571 65.6346 10.8271 65.6346 11.1361V13.9321H64.5788V10.5661C64.5788 10.1521 64.5657 9.70312 64.5405 9.21712H65.4683L65.5177 9.95412H65.5469C65.6698 9.72512 65.8532 9.53612 66.0939 9.38512C66.3801 9.20912 66.7004 9.12012 67.051 9.12012C67.4942 9.12012 67.863 9.26212 68.1561 9.54712C68.5208 9.89612 68.7031 10.4171 68.7031 11.1091V13.9331Z" fill="white"/>
<path d="M71.6146 13.9327H70.5598V7.05566H71.6146V13.9327Z" fill="white"/>
<path d="M77.8303 11.537C77.8303 12.262 77.6217 12.856 77.2047 13.322C76.7675 13.801 76.1872 14.04 75.4649 14.04C74.7668 14.04 74.2117 13.811 73.7986 13.351C73.3856 12.892 73.1791 12.313 73.1791 11.615C73.1791 10.885 73.3916 10.286 73.8188 9.82105C74.2459 9.35605 74.8201 9.12305 75.5425 9.12305C76.2406 9.12305 76.7997 9.35205 77.2248 9.81105C77.6278 10.257 77.8303 10.833 77.8303 11.537ZM76.7342 11.571C76.7342 11.136 76.6395 10.763 76.4511 10.452C76.2305 10.076 75.9142 9.88805 75.5052 9.88805C75.0801 9.88805 74.7577 10.076 74.5371 10.452C74.3477 10.763 74.254 11.142 74.254 11.59C74.254 12.025 74.3487 12.398 74.5371 12.709C74.7657 13.085 75.0841 13.273 75.4951 13.273C75.8981 13.273 76.2134 13.082 76.4411 12.699C76.6375 12.382 76.7342 12.006 76.7342 11.571Z" fill="white"/>
<path d="M82.9398 13.933H81.9918L81.9133 13.39H81.884C81.5597 13.823 81.0973 14.04 80.4968 14.04C80.0485 14.04 79.6859 13.897 79.4129 13.613C79.1651 13.355 79.0411 13.034 79.0411 12.653C79.0411 12.077 79.2829 11.638 79.7695 11.334C80.2551 11.03 80.9381 10.881 81.8176 10.888V10.8C81.8176 10.179 81.4891 9.86905 80.8313 9.86905C80.3629 9.86905 79.9498 9.98605 79.5932 10.218L79.3786 9.53005C79.8199 9.25905 80.3649 9.12305 81.0076 9.12305C82.2487 9.12305 82.8713 9.77305 82.8713 11.073V12.809C82.8713 13.28 82.8945 13.655 82.9398 13.933ZM81.8437 12.313V11.586C80.6792 11.566 80.0969 11.883 80.0969 12.536C80.0969 12.782 80.1634 12.966 80.2994 13.089C80.4354 13.212 80.6087 13.273 80.8152 13.273C81.0469 13.273 81.2635 13.2 81.4609 13.055C81.6594 12.909 81.7813 12.724 81.8266 12.497C81.8377 12.446 81.8437 12.384 81.8437 12.313Z" fill="white"/>
<path d="M88.939 13.9327H88.0021L87.9527 13.1757H87.9235C87.6243 13.7517 87.1146 14.0397 86.3983 14.0397C85.8261 14.0397 85.3496 13.8167 84.9718 13.3707C84.594 12.9247 84.4056 12.3457 84.4056 11.6347C84.4056 10.8717 84.6101 10.2537 85.0212 9.78166C85.4191 9.34166 85.9067 9.12166 86.4869 9.12166C87.1246 9.12166 87.5709 9.33466 87.8248 9.76166H87.8449V7.05566H88.9017V12.6627C88.9017 13.1217 88.9138 13.5447 88.939 13.9327ZM87.8449 11.9447V11.1587C87.8449 11.0227 87.8348 10.9127 87.8157 10.8287C87.7563 10.5767 87.6283 10.3647 87.4339 10.1937C87.2375 10.0227 87.0007 9.93666 86.7277 9.93666C86.3338 9.93666 86.0255 10.0917 85.7989 10.4027C85.5742 10.7137 85.4604 11.1107 85.4604 11.5957C85.4604 12.0617 85.5682 12.4397 85.7848 12.7307C86.0135 13.0407 86.3217 13.1957 86.7076 13.1957C87.0541 13.1957 87.3311 13.0667 87.5417 12.8077C87.7452 12.5687 87.8449 12.2807 87.8449 11.9447Z" fill="white"/>
<path d="M97.9683 11.537C97.9683 12.262 97.7598 12.856 97.3427 13.322C96.9055 13.801 96.3273 14.04 95.603 14.04C94.9068 14.04 94.3518 13.811 93.9367 13.351C93.5237 12.892 93.3171 12.313 93.3171 11.615C93.3171 10.885 93.5297 10.286 93.9568 9.82105C94.384 9.35605 94.9582 9.12305 95.6825 9.12305C96.3786 9.12305 96.9398 9.35205 97.3629 9.81105C97.7659 10.257 97.9683 10.833 97.9683 11.537ZM96.8743 11.571C96.8743 11.136 96.7796 10.763 96.5912 10.452C96.3686 10.076 96.0543 9.88805 95.6432 9.88805C95.2201 9.88805 94.8978 10.076 94.6751 10.452C94.4857 10.763 94.392 11.142 94.392 11.59C94.392 12.025 94.4867 12.398 94.6751 12.709C94.9038 13.085 95.2221 13.273 95.6332 13.273C96.0361 13.273 96.3535 13.082 96.5811 12.699C96.7756 12.382 96.8743 12.006 96.8743 11.571Z" fill="white"/>
<path d="M103.645 13.9331H102.59V11.2331C102.59 10.4011 102.272 9.98512 101.632 9.98512C101.319 9.98512 101.066 10.0991 100.871 10.3281C100.675 10.5571 100.578 10.8271 100.578 11.1361V13.9321H99.5208V10.5661C99.5208 10.1521 99.5087 9.70312 99.4835 9.21712H100.41L100.46 9.95412H100.489C100.613 9.72512 100.796 9.53612 101.036 9.38512C101.323 9.20912 101.642 9.12012 101.994 9.12012C102.436 9.12012 102.805 9.26212 103.098 9.54712C103.464 9.89612 103.645 10.4171 103.645 11.1091V13.9331Z" fill="white"/>
<path d="M110.75 10.0039H109.588V12.2939C109.588 12.8759 109.794 13.1669 110.203 13.1669C110.393 13.1669 110.55 13.1509 110.674 13.1179L110.701 13.9129C110.492 13.9909 110.218 14.0299 109.881 14.0299C109.464 14.0299 109.139 13.9039 108.905 13.6519C108.669 13.3999 108.552 12.9759 108.552 12.3809V10.0039H107.858V9.21892H108.552V8.35492L109.587 8.04492V9.21792H110.749L110.75 10.0039Z" fill="white"/>
<path d="M116.339 13.9327H115.283V11.2527C115.283 10.4077 114.964 9.98466 114.327 9.98466C113.837 9.98466 113.503 10.2297 113.319 10.7197C113.288 10.8227 113.27 10.9487 113.27 11.0967V13.9317H112.215V7.05566H113.27V9.89666H113.29C113.622 9.37966 114.099 9.12166 114.716 9.12166C115.154 9.12166 115.515 9.26366 115.802 9.54866C116.16 9.90366 116.339 10.4317 116.339 11.1297V13.9327Z" fill="white"/>
<path d="M122.105 11.3523C122.105 11.5403 122.091 11.6983 122.066 11.8273H118.899C118.913 12.2933 119.065 12.6483 119.358 12.8943C119.626 13.1143 119.971 13.2243 120.394 13.2243C120.863 13.2243 121.29 13.1503 121.675 13.0013L121.84 13.7293C121.39 13.9233 120.86 14.0203 120.246 14.0203C119.511 14.0203 118.932 13.8053 118.512 13.3753C118.091 12.9453 117.883 12.3683 117.883 11.6443C117.883 10.9333 118.077 10.3413 118.469 9.86928C118.878 9.36528 119.431 9.11328 120.129 9.11328C120.812 9.11328 121.331 9.36528 121.682 9.86928C121.965 10.2693 122.105 10.7643 122.105 11.3523ZM121.097 11.0813C121.106 10.7703 121.036 10.5023 120.893 10.2763C120.71 9.98528 120.431 9.83928 120.053 9.83928C119.708 9.83928 119.427 9.98128 119.213 10.2663C119.037 10.4933 118.934 10.7643 118.899 11.0813H121.097Z" fill="white"/>
</g>
<defs>
<clipPath id="clip0_146_901">
<rect width="136" height="40" fill="white" transform="translate(0 0.5)"/>
</clipPath>
</defs>
</svg>
