<svg width="24" height="24" viewBox="0 0 24 24" fill="none" xmlns="http://www.w3.org/2000/svg">
<path d="M22.4 11.9997C22.4 17.8907 17.6244 22.6663 11.7333 22.6663C5.84228 22.6663 1.06665 17.8907 1.06665 11.9997C1.06665 6.10864 5.84228 1.33301 11.7333 1.33301C17.6244 1.33301 22.4 6.10864 22.4 11.9997Z" fill="#0052B5"/>
<path d="M9.06665 7.19967V1.66905C9.501 1.55726 9.94607 1.47214 10.4 1.41553C10.8368 1.36107 11.2818 1.33301 11.7333 1.33301C12.1849 1.33301 12.6299 1.36107 13.0667 1.41553C13.5206 1.47214 13.9656 1.55726 14.4 1.66905V8.66634L18.9333 4.12953C19.422 4.57684 20.1348 5.46907 20.5333 5.99967L17.0667 9.33301H22.0639C22.1757 9.76736 22.2609 10.2124 22.3175 10.6663C22.3719 11.1031 22.4 11.5481 22.4 11.9997C22.4 12.4512 22.3719 12.8962 22.3175 13.333C22.2609 13.7869 22.1757 14.232 22.0639 14.6663H16.2667L20.2674 18.3997C19.6941 19.163 19.0206 19.847 18.2667 20.432L14.4 16.533V22.3303C13.9656 22.4421 13.5206 22.5272 13.0667 22.5838C12.6299 22.6383 12.1849 22.6663 11.7333 22.6663C11.2818 22.6663 10.8368 22.6383 10.4 22.5838C9.94606 22.5272 9.501 22.4421 9.06665 22.3303L9.06665 15.4663L4.66665 19.9898C4.06993 19.4617 3.53281 18.8677 3.06665 18.2193L6.93332 14.6663H1.4027C1.2909 14.232 1.20578 13.7869 1.14918 13.333C1.09471 12.8962 1.06665 12.4512 1.06665 11.9997C1.06665 11.5481 1.09471 11.1031 1.14918 10.6663C1.20578 10.2124 1.2909 9.76736 1.4027 9.33301H7.06665L3.19998 5.59863C3.7918 4.81093 4.49014 4.10783 5.27362 3.51073L9.06665 7.19967Z" fill="white"/>
<path d="M9.06665 9.33301L4.19863 4.44942C3.94122 4.70631 3.69687 4.97627 3.46665 5.25823L7.73332 9.33301H9.06665Z" fill="#D90026"/>
<path d="M14.4 9.33301L19.268 4.44942C19.5254 4.70631 19.7698 4.97627 20 5.25823L15.7333 9.33301H14.4Z" fill="#D90026"/>
<path d="M14.4 14.7579L19.268 19.6415C19.5254 19.3846 19.7698 19.1146 20 18.8327L15.7333 14.7579H14.4Z" fill="#D90026"/>
<path d="M9.06665 14.7579L4.19863 19.6415C3.94122 19.3846 3.69687 19.1146 3.46665 18.8327L7.73332 14.7579H9.06665Z" fill="#D90026"/>
<path d="M1.14918 10.6663C1.09471 11.1031 1.06665 11.5481 1.06665 11.9997C1.06665 12.4512 1.09471 12.8962 1.14918 13.333H10.4V22.5838C10.8368 22.6383 11.2818 22.6663 11.7333 22.6663C12.1849 22.6663 12.6299 22.6383 13.0667 22.5838V13.333H22.3175C22.3719 12.8962 22.4 12.4512 22.4 11.9997C22.4 11.5481 22.3719 11.1031 22.3175 10.6663H13.0667V1.41553C12.5447 1.33703 12.2771 1.33301 11.7333 1.33301C11.2818 1.33301 10.8368 1.36107 10.4 1.41553V10.6663H1.14918Z" fill="#D90026"/>
</svg>
