<svg width="72" height="73" viewBox="0 0 72 73" fill="none" xmlns="http://www.w3.org/2000/svg">
<g clip-path="url(#clip0_256_1156)">
<path d="M8.9989 55.2967C9.63508 54.6606 9.63508 53.629 8.9989 52.9926C8.36272 52.3566 7.33114 52.3566 6.69479 52.9926L0.477138 59.2106C-0.159046 59.8468 -0.159046 60.8784 0.477138 61.5147C0.795148 61.8327 1.21221 61.9919 1.62911 61.9919C2.04601 61.9919 2.46307 61.8327 2.78108 61.5147L8.9989 55.2967Z" fill="#BF1023"/>
<path d="M50.0011 11.6806C48.5564 13.1255 47.7607 15.0464 47.7607 17.0895C47.7607 19.1328 48.5564 21.0537 50.0011 22.4985C51.4923 23.9896 53.4512 24.7351 55.4101 24.7351C57.369 24.7351 59.3277 23.9896 60.8189 22.4985C62.2638 21.0537 63.0593 19.1328 63.0593 17.0895C63.0593 15.0464 62.2636 13.1255 60.8189 11.6806C57.8365 8.69827 52.9838 8.69827 50.0011 11.6806ZM58.5149 20.1945C56.8029 21.9069 54.0173 21.9068 52.3051 20.1945C51.4757 19.3651 51.019 18.2627 51.019 17.0895C51.019 15.9167 51.4759 14.8139 52.3051 13.9845C53.1612 13.1284 54.2855 12.7004 55.4101 12.7004C56.5344 12.7004 57.6591 13.1286 58.5149 13.9845C59.3443 14.8139 59.8011 15.9165 59.8011 17.0895C59.8011 18.2627 59.3443 19.3651 58.5149 20.1945Z" fill="#BF1023"/>
<path d="M14.1369 58.1308C13.5008 57.4948 12.4692 57.4948 11.833 58.1308L3.11117 66.8528C2.47499 67.489 2.47499 68.5206 3.11117 69.1569C3.42934 69.4749 3.84624 69.6341 4.26314 69.6341C4.68004 69.6341 5.09711 69.4749 5.41512 69.1569L14.1369 60.4349C14.7731 59.7986 14.7731 58.767 14.1369 58.1308Z" fill="#BF1023"/>
<path d="M70.9626 2.67143C70.8098 2.12045 70.3792 1.69019 69.8285 1.53721C63.8911 -0.110674 57.4599 0.209943 51.23 2.46387C46.4027 4.21049 41.7078 7.1384 38.3491 10.4972L33.2831 15.5632L14.9301 18.43C14.5889 18.4833 14.2737 18.6436 14.0295 18.8877L2.29128 30.6259C1.83414 31.0832 1.69045 31.7672 1.92521 32.3695C2.15997 32.9718 2.72887 33.3783 3.37466 33.4055L14.9535 33.8925L12.0515 36.7945C11.4153 37.4307 11.4153 38.4622 12.0515 39.0986L13.7453 40.7923L8.68635 48.5468C8.26537 49.1922 8.35384 50.044 8.89879 50.589L21.911 63.601C22.4559 64.1458 23.3078 64.2348 23.9533 63.8135L31.7076 58.7543L33.4014 60.4481C34.0376 61.0841 35.0691 61.0841 35.7055 60.4481L38.6075 57.5461L39.0944 69.1246C39.1217 69.7706 39.5281 70.3393 40.1304 70.5741C40.3227 70.649 40.523 70.6854 40.7218 70.6854C41.146 70.6854 41.5628 70.5194 41.8741 70.2082L53.6123 58.47C53.8565 58.2258 54.0167 57.9104 54.0701 57.5694L56.9371 39.2165L62.0029 34.1505C65.3616 30.7919 68.2896 26.097 70.0362 21.2698C72.2899 15.0401 72.6103 8.6087 70.9626 2.67143ZM23.2801 60.3621L12.1377 49.2197L16.1 43.1465L21.5746 48.6211L20.9307 49.265C20.2944 49.9012 20.2944 50.9327 20.9307 51.5691C21.5669 52.2051 22.5985 52.2051 23.2348 51.5691L23.8787 50.9252L29.3533 56.3998L23.2801 60.3621ZM59.6986 31.8467L54.2571 37.2884C54.2565 37.2891 54.2558 37.2897 54.2552 37.2904L48.5932 42.9523C47.957 43.5885 47.957 44.6201 48.5932 45.2565C49.2294 45.8925 50.261 45.8925 50.8973 45.2565L53.0286 43.1252L50.9327 56.5419L42.1939 65.2808L41.7371 54.4167L46.2894 49.8643C46.9256 49.2282 46.9256 48.1966 46.2894 47.5602C45.6532 46.9242 44.6217 46.9242 43.9853 47.5602L38.9315 52.614C38.9288 52.6168 38.9262 52.6194 38.9234 52.6222L34.5534 56.992L33.1006 55.5393C33.084 55.5222 33.0674 55.5054 33.0501 55.489L26.1824 48.6211L45.8862 28.9175C46.5224 28.2814 46.5226 27.2498 45.8862 26.6134C45.2502 25.9776 44.2186 25.9774 43.5823 26.6134L23.8785 46.3174L17.0105 39.4493C16.9942 39.4324 16.9776 39.4158 16.9605 39.3993L15.5078 37.9464L19.8778 33.5764C19.8806 33.5738 19.8832 33.5712 19.8858 33.5684L24.9396 28.5146C25.5759 27.8785 25.5759 26.8469 24.9396 26.2105C24.3035 25.5745 23.2718 25.5745 22.6356 26.2105L18.0833 30.7629L7.21913 30.3059L15.9579 21.5671L29.3746 19.4714L27.2434 21.6025L29.5473 23.9066L35.1921 18.2617C35.2044 18.2499 35.2166 18.2378 35.2285 18.2254L40.6529 12.801C45.1865 8.26756 55.9513 1.55041 68.0557 4.44394C70.9492 16.5485 64.2321 27.3135 59.6986 31.8467Z" fill="#BF1023"/>
<path d="M17.203 63.5011L10.9852 69.7189C10.349 70.3551 10.349 71.3866 10.9852 72.023C11.3034 72.341 11.7203 72.5002 12.1372 72.5002C12.5541 72.5002 12.9711 72.341 13.2891 72.023L19.507 65.8052C20.1431 65.169 20.1431 64.1374 19.507 63.5011C18.8709 62.8649 17.8394 62.8649 17.203 63.5011Z" fill="#BF1023"/>
</g>
<defs>
<clipPath id="clip0_256_1156">
<rect width="72" height="72" fill="white" transform="translate(0 0.5)"/>
</clipPath>
</defs>
</svg>
