<svg width="72" height="73" viewBox="0 0 72 73" fill="none" xmlns="http://www.w3.org/2000/svg">
<g clip-path="url(#clip0_255_1154)">
<path d="M27.2278 18.0922C17.8681 21.7208 11.6151 30.9048 11.6151 40.9454V47.6318C11.6151 48.5466 10.8024 49.3115 9.88755 49.3115H6.43485C3.61781 49.3115 1.30908 46.9963 1.30908 44.1793V36.6261C1.30908 34.4 2.74199 32.4451 4.86521 31.7616C5.73662 31.4812 6.67557 31.96 6.95586 32.8307C7.23614 33.7014 6.75342 34.6346 5.88256 34.9149C5.14513 35.1523 4.62173 35.8561 4.62173 36.6261V44.1793C4.62173 45.1698 5.44455 45.9988 6.43485 45.9988H8.30245V40.9456C8.30245 35.2248 9.99079 29.7291 13.2521 25.0528C16.4383 20.4843 20.8213 17.0093 25.9949 15.0037C26.8477 14.6732 27.8073 15.0963 28.138 15.9494C28.4684 16.8021 28.0806 17.7615 27.2278 18.0922ZM54.1393 19.035C54.1393 22.5098 51.3122 25.3369 47.8372 25.3369C44.3624 25.3369 41.5353 22.51 41.5353 19.035C41.5353 15.56 44.3623 12.7331 47.8372 12.7331C51.3122 12.7331 54.1393 15.5602 54.1393 19.035ZM50.8267 19.035C50.8267 17.3868 49.4856 16.0457 47.8372 16.0457C46.189 16.0457 44.8479 17.3868 44.8479 19.035C44.8479 20.6832 46.189 22.0243 47.8372 22.0243C49.4856 22.0243 50.8267 20.6832 50.8267 19.035ZM70.6906 36.6259V44.1791C70.6906 46.9961 68.4737 49.3113 65.6567 49.3113H62.5975C61.5928 52.4399 59.9985 55.5295 57.8515 58.2369C54.3239 62.6856 49.4696 65.9774 44.0711 67.6065C43.8284 70.3315 41.5329 72.4996 38.7464 72.4996H33.3453C30.3976 72.4996 27.9994 70.1105 27.9994 67.1628C27.9994 64.2145 30.3976 61.8256 33.3453 61.8256H38.7466C40.6867 61.8256 42.3888 62.8302 43.3258 64.3809C53.5348 61.2219 60.5475 51.7601 60.5475 40.945C60.5475 37.6118 59.891 34.3847 58.5956 31.3477L56.4164 30.374C55.4784 31.086 54.4633 31.6738 53.3822 32.131L53.111 34.7472C53.0217 36.4709 51.0161 37.5365 47.8376 37.5365C44.6505 37.5365 42.6456 36.468 42.5637 34.7391L42.2931 32.1312C41.2121 31.6742 40.197 31.0864 39.2588 30.3744L36.849 31.4513C35.3121 32.2326 33.388 31.0284 31.8 28.2775C31.2269 27.285 30.8168 26.2498 30.6457 25.3633C30.2883 23.5111 31.0346 22.6712 31.5817 22.3147L33.7226 20.7635C33.653 20.19 33.6179 19.6112 33.6179 19.0332C33.6179 18.4455 33.6541 17.8577 33.7259 17.2756L31.5859 15.7253C30.1293 14.79 30.2064 12.5192 31.8003 9.75903C33.3886 7.00714 35.3134 5.803 36.8505 6.58607L39.2834 7.67335C40.2139 6.97034 41.2197 6.38933 42.2898 5.93642L42.5637 3.29716C42.6454 1.5687 44.6503 0.5 47.8372 0.5C51.017 0.5 53.023 1.5663 53.1108 3.29109L53.385 5.93661C54.455 6.38933 55.4609 6.9707 56.3916 7.67354L58.8201 6.58864C59.4024 6.29345 60.5031 6.06727 61.9281 7.30234C62.6103 7.89383 63.3016 8.76634 63.8747 9.75922C65.4644 12.5118 65.5442 14.7819 64.0957 15.7209L61.9491 17.276C62.0209 17.8581 62.0571 18.4459 62.0571 19.0333C62.0571 19.6121 62.0222 20.1911 61.9526 20.7635L64.0981 22.3182C65.5442 23.2583 65.4634 25.5278 63.8745 28.2791C63.3018 29.2716 62.6103 30.1456 61.9281 30.7373C61.9274 30.738 61.9265 30.7417 61.9255 30.7424C63.2097 33.9899 63.8601 37.4248 63.8601 40.9568C63.8601 42.6643 63.7094 44.3421 63.4122 45.9985H65.6567C66.6472 45.9985 67.378 45.1694 67.378 44.1789V36.6257C67.378 35.8555 66.891 35.1519 66.1536 34.9145C65.2829 34.6342 64.8324 33.701 65.1127 32.8303C65.393 31.9597 66.3074 31.4808 67.1781 31.7613C69.3015 32.4451 70.6906 34.4 70.6906 36.6259ZM40.7798 67.1376C40.7798 67.0023 40.7666 66.8534 40.7414 66.7255C40.7369 66.7064 40.7329 66.7044 40.729 66.685C40.5227 65.7809 39.7122 65.1384 38.7466 65.1384H33.3453C32.2242 65.1384 31.3121 66.0413 31.3121 67.1624C31.3121 68.2841 32.2242 69.1872 33.3453 69.1872H38.7466C39.8677 69.1874 40.7798 68.2587 40.7798 67.1376ZM59.1799 15.1918L61.7789 13.3089C61.703 12.9211 61.482 12.2406 61.0057 11.4159C60.5298 10.5914 60.0511 10.0597 59.7532 9.80026L56.8117 11.1143C56.2201 11.3787 55.5283 11.2735 55.0417 10.8452C53.9441 9.87902 52.6901 9.15447 51.3149 8.69236C50.6997 8.4855 50.2621 7.93855 50.1951 7.29295L49.8631 4.0898C49.4895 3.96153 48.7896 3.81265 47.8372 3.81265C46.8852 3.81265 46.1853 3.96153 45.8115 4.08962L45.4792 7.29295C45.4122 7.93836 44.9744 8.48532 44.3595 8.69217C42.9835 9.15466 41.7298 9.87884 40.633 10.8448C40.1464 11.2735 39.4542 11.3785 38.8625 11.1139L35.9215 9.79952C35.6235 10.059 35.1446 10.5907 34.6685 11.4154C34.1924 12.2398 33.9712 12.9204 33.8956 13.3083L36.4945 15.1912C37.02 15.572 37.2749 16.2244 37.1464 16.8604C37.0028 17.5714 36.9302 18.3023 36.9302 19.0333C36.9302 19.756 37.0014 20.4795 37.142 21.1842C37.2686 21.8191 37.0137 22.4697 36.4896 22.8495L33.8958 24.7289C33.9716 25.1166 34.1926 25.7972 34.6687 26.6215C35.1448 27.4464 35.6237 27.978 35.9216 28.2375L38.8404 26.9333C39.4336 26.6681 40.127 26.7744 40.6138 27.2049C41.716 28.1801 42.9772 28.9105 44.3623 29.3754C44.9777 29.5821 45.4157 30.129 45.4827 30.7746L45.8119 33.9472C46.1857 34.0755 46.8854 34.2242 47.8376 34.2242C48.79 34.2242 49.4899 34.0753 49.8636 33.9471L50.1927 30.7748C50.2597 30.1292 50.6975 29.5823 51.3127 29.3754C52.6982 28.9102 53.9594 28.1797 55.0612 27.2047C55.548 26.7741 56.241 26.6679 56.8344 26.9329L59.7535 28.237C60.0515 27.9773 60.53 27.4458 61.0057 26.6215C61.4822 25.7967 61.7034 25.1159 61.779 24.7281L59.1852 22.8491C58.6606 22.4691 58.4057 21.8178 58.533 21.1827C58.6734 20.481 58.7447 19.7577 58.7447 19.0333C58.7447 18.3025 58.6718 17.5715 58.5284 16.8606C58.3998 16.2248 58.6545 15.5724 59.1799 15.1918Z" fill="#BF1023"/>
</g>
<defs>
<clipPath id="clip0_255_1154">
<rect width="72" height="72" fill="white" transform="translate(0 0.5)"/>
</clipPath>
</defs>
</svg>
