<svg width="24" height="24" viewBox="0 0 24 24" fill="none" xmlns="http://www.w3.org/2000/svg">
<path fill-rule="evenodd" clip-rule="evenodd" d="M7.5102 3.22449C5.14327 3.22449 3.22449 5.14327 3.22449 7.5102V16.4898C3.22449 18.8567 5.14327 20.7755 7.5102 20.7755H16.4898C18.8567 20.7755 20.7755 18.8567 20.7755 16.4898V7.5102C20.7755 5.14327 18.8567 3.22449 16.4898 3.22449H7.5102ZM2 7.5102C2 4.467 4.467 2 7.5102 2H16.4898C19.533 2 22 4.467 22 7.5102V16.4898C22 19.533 19.533 22 16.4898 22H7.5102C4.467 22 2 19.533 2 16.4898V7.5102ZM17.3061 7.91837C17.9824 7.91837 18.5306 7.37015 18.5306 6.69388C18.5306 6.01761 17.9824 5.46939 17.3061 5.46939C16.6299 5.46939 16.0816 6.01761 16.0816 6.69388C16.0816 7.37015 16.6299 7.91837 17.3061 7.91837ZM8.53061 12C8.53061 10.0839 10.0839 8.53061 12 8.53061C13.9161 8.53061 15.4694 10.0839 15.4694 12C15.4694 13.9161 13.9161 15.4694 12 15.4694C10.0839 15.4694 8.53061 13.9161 8.53061 12ZM12 7.30612C9.40764 7.30612 7.30612 9.40764 7.30612 12C7.30612 14.5923 9.40764 16.6939 12 16.6939C14.5923 16.6939 16.6939 14.5923 16.6939 12C16.6939 9.40764 14.5923 7.30612 12 7.30612Z" fill="#181818"/>
</svg>
