<svg width="24" height="24" viewBox="0 0 24 24" fill="none" xmlns="http://www.w3.org/2000/svg">
<path d="M4.71261 19C4.23402 19 3.82895 18.8367 3.49737 18.51C3.16579 18.1833 3 17.7842 3 17.3128V6.68723C3 6.21574 3.16579 5.81667 3.49737 5.49C3.82895 5.16333 4.23402 5 4.71261 5H19.2874C19.766 5 20.1711 5.16333 20.5026 5.49C20.8342 5.81667 21 6.21574 21 6.68723V17.3128C21 17.7842 20.8342 18.1833 20.5026 18.51C20.1711 18.8367 19.766 19 19.2874 19H4.71261ZM12 12.5205L4.42105 7.7461V17.3128C4.42105 17.3966 4.44837 17.4654 4.503 17.5193C4.55763 17.5731 4.6275 17.6 4.71261 17.6H19.2874C19.3725 17.6 19.4423 17.5731 19.497 17.5193C19.5517 17.4654 19.5789 17.3966 19.5789 17.3128V7.7461L12 12.5205ZM12 11.0667L19.4333 6.4H4.56671L12 11.0667ZM4.42105 7.7461V6.4V17.3128C4.42105 17.3966 4.44837 17.4654 4.503 17.5193C4.55763 17.5731 4.6275 17.6 4.71261 17.6H4.42105V7.7461Z" fill="#181818"/>
</svg>
