<svg width="120" height="120" viewBox="0 0 120 120" fill="none" xmlns="http://www.w3.org/2000/svg">
<path d="M57.6563 18.7734C49.9922 19.6641 43.6875 25.0078 41.25 32.6953C40.4531 35.1797 40.3359 39.75 40.9922 42.4688C41.6016 45.0703 42.2578 46.5 45.2109 51.5625L47.5781 55.6641L36.2813 61.2891L24.9844 66.9141L17.2969 83.1797C13.0781 92.1094 9.60938 99.6797 9.60938 99.9609C9.60938 100.641 10.3125 101.25 11.1094 101.25C11.4609 101.25 17.3906 98.7188 24.3047 95.6016L36.8672 89.9531L37.7109 90.4219C41.5313 92.5078 58.8516 101.25 59.4141 101.344C59.8125 101.438 60.5391 101.367 61.0781 101.203C61.6172 101.039 66.7969 98.4375 72.6328 95.4375L83.2266 89.9531L96.0234 95.7656C108.281 101.32 108.844 101.555 109.43 101.227C110.859 100.406 111.094 101.039 102.633 83.2031L94.8047 66.7266L83.6719 61.2422C77.5547 58.2422 72.5625 55.6875 72.5859 55.5703C72.6094 55.4766 73.5703 53.7422 74.7188 51.75C78.8672 44.6016 79.5 42.75 79.5 37.9453C79.4766 26.3906 69.2813 17.4375 57.6563 18.7734ZM64.6406 21.5625C70.5703 23.2266 75.3281 28.1484 76.7813 34.1016C77.3203 36.3047 77.3203 40.1719 76.8047 42.1875C76.1719 44.5313 75.3047 46.1719 68.3203 58.2422C64.7578 64.4297 61.4766 70.125 61.0547 70.8984C60.6094 71.6719 60.1875 72.3281 60.0703 72.3516C59.8594 72.4219 45.0469 46.8516 44.1563 44.8828C42.2344 40.5 42.3984 34.9219 44.6016 30.5625C47.25 25.3359 51.7734 22.0078 57.5391 21.0703C59.3203 20.7891 62.7188 21.0234 64.6406 21.5625ZM46.6172 59.8125C46.3594 60.4922 43.875 67.0078 41.0859 74.2969C38.3203 81.5859 35.9531 87.6328 35.8594 87.75C35.6016 88.0078 13.0313 98.1797 12.9141 98.0859C12.8906 98.0391 15.9844 91.3594 19.8281 83.25L26.8359 68.4844L36.7969 63.5625C42.2813 60.8438 46.8281 58.6172 46.9219 58.6172C47.0156 58.5938 46.875 59.1563 46.6172 59.8125ZM90 66.9141L93.1641 68.4844L100.172 83.25C104.016 91.3594 107.133 98.0391 107.086 98.0859C106.969 98.1797 84.375 87.9844 84.1172 87.7266C83.9297 87.5156 73.125 59.1094 73.125 58.8047C73.125 58.6406 81.8203 62.8125 90 66.9141ZM52.4297 64.0547C54 66.7734 55.3125 69.1641 55.3594 69.3281C55.4063 69.5156 54.9375 69.7969 54.1875 70.0781C51.0469 71.2031 49.4531 72.7969 49.4531 74.8125C49.4531 76.1484 49.8047 76.9453 50.9063 77.9766C54.6094 81.5391 65.3203 81.5391 69.0938 77.9531C70.1484 76.9688 70.5469 76.1484 70.5469 74.9531C70.5469 72.9375 68.9531 71.25 66.0234 70.1719C65.2266 69.8906 64.5938 69.5391 64.6406 69.3984C64.7109 69.0469 70.0781 59.7188 70.4063 59.3672C70.5938 59.1563 72.0234 62.6719 76.125 73.4297C79.125 81.3281 81.5859 87.8672 81.5859 87.9844C81.5859 88.1016 76.9219 90.6094 71.2031 93.5859C63.3984 97.6406 60.6094 98.9766 60 98.9766C59.3906 98.9766 56.4844 97.5703 48.7266 93.5391L38.2734 88.125L43.7813 73.5938C46.8047 65.6016 49.3594 59.0625 49.4297 59.0625C49.5 59.0625 50.8594 61.3125 52.4297 64.0547ZM57.9844 73.7109C59.625 76.6172 60.2813 76.7813 61.5469 74.6016C61.8984 73.9688 62.4375 73.0781 62.7188 72.6094L63.2813 71.7422L64.5 72.0938C66.0938 72.5625 67.6406 73.4531 68.1328 74.2031C68.4844 74.7422 68.4844 74.8594 68.1563 75.5391C67.3828 77.1797 63.9375 78.3516 60 78.3516C57.2344 78.3516 55.1953 77.9297 53.3906 76.9453C51.2578 75.7969 51.1172 74.4375 52.9453 73.2422C53.6953 72.75 56.0859 71.7891 56.7422 71.7422C56.8125 71.7188 57.375 72.6094 57.9844 73.7109Z" fill="white"/>
<path d="M56.9531 26.9297C54.8906 27.5859 53.6719 28.3359 52.2422 29.7422C47.9062 34.0781 47.9062 40.9219 52.2422 45.2578C55.6641 48.6797 60.6328 49.4766 65.0859 47.3203C67.5703 46.1016 70.125 42.8437 70.7578 40.0547C71.0625 38.7422 71.0625 36.2578 70.7578 34.9453C70.125 32.1562 67.5469 28.8516 65.0859 27.6797C62.5078 26.4375 59.3672 26.1562 56.9531 26.9297ZM63.7969 29.6016C70.3828 32.8359 70.3594 42.1875 63.75 45.4219C62.6016 45.9844 62.2031 46.0547 60 46.0547C57.9609 46.0547 57.3516 45.9609 56.4141 45.5391C54.8906 44.8359 52.9453 42.9141 52.125 41.3203C51.4922 40.0781 51.4453 39.75 51.4453 37.5C51.4453 35.2734 51.5156 34.9219 52.1016 33.75C53.2031 31.5937 55.1953 29.8359 57.3047 29.1328C57.8672 28.9687 59.1094 28.8516 60.3516 28.8984C62.1094 28.9453 62.6719 29.0625 63.7969 29.6016Z" fill="white"/>
</svg>
