<svg width="24" height="24" viewBox="0 0 24 24" fill="none" xmlns="http://www.w3.org/2000/svg">
<path d="M22 12.5C22 12.721 21.9122 12.933 21.7559 13.0893C21.5996 13.2455 21.3877 13.3333 21.1667 13.3333H2.83333C2.61232 13.3333 2.40036 13.2455 2.24408 13.0893C2.0878 12.933 2 12.721 2 12.5C2 12.279 2.0878 12.067 2.24408 11.9107C2.40036 11.7545 2.61232 11.6667 2.83333 11.6667H21.1667C21.3877 11.6667 21.5996 11.7545 21.7559 11.9107C21.9122 12.067 22 12.279 22 12.5ZM2.83333 6.66667H21.1667C21.3877 6.66667 21.5996 6.57887 21.7559 6.42259C21.9122 6.26631 22 6.05435 22 5.83333C22 5.61232 21.9122 5.40036 21.7559 5.24408C21.5996 5.0878 21.3877 5 21.1667 5H2.83333C2.61232 5 2.40036 5.0878 2.24408 5.24408C2.0878 5.40036 2 5.61232 2 5.83333C2 6.05435 2.0878 6.26631 2.24408 6.42259C2.40036 6.57887 2.61232 6.66667 2.83333 6.66667ZM21.1667 18.3333H2.83333C2.61232 18.3333 2.40036 18.4211 2.24408 18.5774C2.0878 18.7337 2 18.9457 2 19.1667C2 19.3877 2.0878 19.5996 2.24408 19.7559C2.40036 19.9122 2.61232 20 2.83333 20H21.1667C21.3877 20 21.5996 19.9122 21.7559 19.7559C21.9122 19.5996 22 19.3877 22 19.1667C22 18.9457 21.9122 18.7337 21.7559 18.5774C21.5996 18.4211 21.3877 18.3333 21.1667 18.3333Z" fill="#181818"/>
</svg>
