<svg width="24" height="24" viewBox="0 0 24 24" fill="none" xmlns="http://www.w3.org/2000/svg">
<path d="M19.0025 20C17.2289 20 15.4471 19.5876 13.6569 18.7628C11.867 17.9381 10.2224 16.7746 8.72306 15.2725C7.22393 13.7702 6.06196 12.1255 5.23718 10.3384C4.4124 8.55137 4 6.77106 4 4.99741C4 4.7124 4.09412 4.4749 4.28235 4.28494C4.47059 4.09498 4.70588 4 4.98824 4H8.05788C8.29553 4 8.50518 4.07757 8.68682 4.23271C8.86847 4.38769 8.984 4.57922 9.03341 4.80729L9.57294 7.57647C9.61028 7.83341 9.60243 8.05419 9.54941 8.23882C9.49623 8.42345 9.40087 8.57851 9.26329 8.704L7.08965 10.82C7.43945 11.4606 7.83913 12.0666 8.28871 12.6381C8.73812 13.2094 9.22471 13.7551 9.74847 14.2751C10.2648 14.7916 10.8138 15.2712 11.3955 15.7141C11.9771 16.1569 12.6053 16.569 13.2798 16.9504L15.3918 14.82C15.5391 14.6667 15.7175 14.5593 15.9269 14.4977C16.1361 14.4361 16.3536 14.4211 16.5793 14.4525L19.1928 14.9848C19.4304 15.0474 19.6243 15.1687 19.7746 15.3484C19.9249 15.5282 20 15.7321 20 15.9603V19.0118C20 19.2941 19.905 19.5294 19.7151 19.7176C19.5251 19.9059 19.2876 20 19.0025 20ZM6.42165 9.48423L8.10141 7.87694C8.13153 7.85278 8.15113 7.8196 8.16024 7.77741C8.16934 7.73522 8.16784 7.696 8.15577 7.65977L7.74659 5.55647C7.73451 5.50831 7.71341 5.47216 7.68329 5.448C7.65318 5.42384 7.61396 5.41176 7.56565 5.41176H5.55294C5.51671 5.41176 5.48651 5.42384 5.46235 5.448C5.43835 5.47216 5.42635 5.50235 5.42635 5.53859C5.47451 6.18172 5.57976 6.83506 5.74212 7.49859C5.90431 8.16228 6.13082 8.82416 6.42165 9.48423ZM14.6099 17.6182C15.2337 17.909 15.8844 18.1313 16.5619 18.2852C17.2395 18.4389 17.8727 18.5303 18.4614 18.5593C18.4976 18.5593 18.5278 18.5472 18.552 18.523C18.5762 18.4989 18.5882 18.4687 18.5882 18.4325V16.4525C18.5882 16.4041 18.5762 16.365 18.552 16.3349C18.5278 16.3048 18.4917 16.2836 18.4435 16.2715L16.467 15.8696C16.4308 15.8576 16.3992 15.8561 16.372 15.8651C16.3448 15.8743 16.3161 15.8938 16.2859 15.924L14.6099 17.6182Z" fill="#181818"/>
</svg>
