<svg width="120" height="120" viewBox="0 0 120 120" fill="none" xmlns="http://www.w3.org/2000/svg">
<path d="M63.638 14.273C61.2311 14.9467 59.6977 17.0831 59.6977 19.8163C59.6783 21.1252 59.7559 21.4331 60.3577 22.6072C61.0952 24.0316 62.2016 24.9747 63.6186 25.3789C64.0068 25.4751 66.0836 25.5714 68.2382 25.5714H72.1396L72.4308 26.6685C72.6054 27.2844 74.2553 33.4437 76.0799 40.3728L79.4378 52.9416L78.9137 54.0387C78.2344 55.463 77.9626 56.8296 78.1179 57.9652C78.1956 58.4849 78.5838 60.1402 78.9914 61.6608L79.729 64.3939L74.3329 74.345C71.3826 79.8113 68.6846 84.681 68.3546 85.1429C67.8306 85.8936 65.6954 87.5296 65.5207 87.3372C65.4819 87.2987 65.3072 86.8175 65.1325 86.2593C64.5114 84.3923 63.2498 83.1219 61.3476 82.4483C60.6488 82.2173 59.3289 82.1595 53.7776 82.1595H47.0617L46.2465 80.4465C43.5679 74.8262 38.5213 69.7063 32.8147 66.7999C29.2626 64.9714 24.8954 63.6433 22.4109 63.624C19.5382 63.6048 17.2866 65.7413 17.2672 68.4937C17.2672 71.2269 18.7035 72.9784 21.4986 73.6328C25.8076 74.6145 27.8263 75.4229 30.369 77.1744C31.7471 78.1175 35.3186 81.5821 35.3186 81.9671C35.3186 82.0826 34.6392 82.1595 33.824 82.1595C32.8923 82.1788 31.9412 82.3135 31.3589 82.506L30.3884 82.8525L28.9715 82.1403C25.1283 80.2348 20.7028 80.2925 16.7819 82.3135C15.035 83.2182 12.3758 85.8166 11.5024 87.4527C9.03728 92.1298 9.50313 97.5577 12.6864 101.734C13.8704 103.274 15.4038 104.506 17.3642 105.449C22.5856 107.971 28.7774 106.777 32.7176 102.504C33.3776 101.792 34.1152 100.83 34.3675 100.349L34.8333 99.4824H39.4335H44.0337L44.4219 98.982C44.6549 98.6933 44.8296 98.3468 44.8296 98.2121C44.8296 97.7117 44.3831 97.0187 43.9173 96.807C43.6067 96.6723 40.7922 96.5953 35.0663 96.5953C25.5165 96.5953 25.73 96.6338 24.8759 95.0362C24.1384 93.6697 24.4877 92.3416 25.8853 91.3214C26.4093 90.9172 26.6034 90.9172 45.5671 90.821C66.86 90.7055 65.4043 90.8017 67.8306 89.3774C70.1404 88.0301 70.7033 87.2217 75.6722 77.9828C78.1761 73.3441 80.3501 69.3406 80.5248 69.1096C80.7965 68.6669 80.8159 68.6669 81.2235 69.8988C81.8447 71.7081 82.8734 73.0361 84.368 73.9793C84.5039 74.0563 74.5659 92.0336 73.9447 92.842C73.1683 93.8429 71.8096 94.9592 70.6644 95.5367C68.7234 96.5183 69.034 96.4798 58.5525 96.5953L48.6728 96.6915L48.304 97.1535C47.8187 97.7309 47.8381 98.3468 48.3428 98.982L48.731 99.4824H58.2031C66.9183 99.4824 67.7917 99.444 69.131 99.1167C72.1202 98.3468 74.9152 96.5183 76.5263 94.2471C76.9921 93.5734 79.2437 89.6084 81.5147 85.4316C83.7857 81.2549 85.7073 77.7518 85.7849 77.6556C85.9596 77.4824 86.0372 77.7133 86.9689 81.3319L87.5901 83.6801L86.5807 84.7965C85.2997 86.1823 84.1933 88.0301 83.6304 89.6661C82.9705 91.5717 82.8928 95.0555 83.4363 97.0765C84.6203 101.311 87.7453 104.622 91.9767 106.104C93.4907 106.623 93.8595 106.681 96.0723 106.681C98.1686 106.681 98.7121 106.604 100.051 106.161C104.749 104.622 108.01 100.984 108.999 96.2103C110.28 89.8586 106.36 83.3529 100.013 81.2934C98.8285 80.9277 99.1197 81.5821 97.431 75.2689L96.4411 71.5348L96.9263 70.5532C97.5669 69.2444 97.8968 67.6853 97.761 66.5689C97.6057 65.3371 94.7718 54.7509 94.306 53.7115C93.7819 52.5181 92.8696 51.4403 91.7244 50.6703L90.7345 50.0159L89.1429 44.0106C88.25 40.6616 87.396 37.8706 87.2213 37.6782C86.4643 36.8505 84.8144 37.4857 84.8144 38.6021C84.8144 38.91 85.4355 41.4315 86.1731 44.2031C86.9301 46.994 87.5318 49.3038 87.5318 49.3423C87.5318 49.3615 86.9883 49.4962 86.3284 49.6117C84.7368 49.9197 83.1063 50.3816 82.4464 50.7088C81.9223 50.9783 81.9223 50.9591 81.7282 50.2661C78.8167 39.4297 75.3035 26.0526 75.3035 25.8601C75.3035 25.6869 75.7693 25.5906 77.0115 25.5329C78.3702 25.4944 78.9137 25.3789 79.7678 24.9554C80.3501 24.6667 80.8547 24.455 80.8742 24.4935C80.913 24.532 81.4953 26.6107 82.1746 29.1322C83.0287 32.3466 83.5139 33.7901 83.7469 33.9826C84.1933 34.2906 84.8921 34.3098 85.4161 34.0211C86.309 33.5592 86.2702 33.2127 84.5233 26.6685C83.5916 23.2039 82.8734 20.0858 82.8734 19.5853C82.8734 17.6221 81.6117 15.6396 79.6901 14.6387L78.7002 14.119L71.6155 14.0805C66.4136 14.042 64.2979 14.0998 63.638 14.273ZM78.4091 17.2564C80.3889 18.238 80.5054 21.3176 78.5838 22.3378C77.982 22.6457 77.3415 22.6842 71.2273 22.6842C64.9384 22.6842 64.492 22.665 63.9097 22.2993C62.5704 21.5101 62.1628 19.8933 62.9198 18.469C63.735 16.9099 63.7738 16.9099 71.2273 16.9099C77.031 16.9099 77.8074 16.9484 78.4091 17.2564ZM89.8028 52.9416C91.375 53.7307 91.6079 54.2697 93.3549 60.8139C94.2089 64.0475 94.9077 66.8961 94.9077 67.1464C94.9077 68.6862 93.6654 70.3992 91.9185 71.2461C89.2205 72.555 86.406 72.2855 84.8726 70.5532C84.1739 69.764 84.038 69.3406 82.1746 62.3344C80.9518 57.6572 80.8936 57.407 81.1071 56.4446C81.8252 53.2688 86.6584 51.3248 89.8028 52.9416ZM25.7106 67.1656C33.0282 68.9941 39.4529 73.9985 43.0826 80.6582L43.8979 82.1595H41.394L38.9095 82.1403L37.8807 80.6197C34.6586 75.8656 29.282 72.3432 23.3814 71.0921C21.2463 70.6494 20.7804 70.457 20.4698 69.8218C19.8487 68.6669 20.3146 67.1271 21.4015 66.6652C22.1391 66.338 22.7991 66.4149 25.7106 67.1656ZM96.1499 81.6783C97.7804 87.8184 98.2268 89.8201 98.1492 90.3783C97.9939 91.3214 97.004 92.2838 95.8782 92.5725C95.1018 92.7843 94.8883 92.765 94.0924 92.3993C93.6072 92.1876 93.0637 91.8026 92.889 91.5524C92.7143 91.2829 91.6662 87.6259 90.5404 83.3914C89.4146 79.1762 88.4441 75.5768 88.4053 75.4036C88.3276 75.1534 88.6188 75.0379 89.9581 74.7877C90.851 74.5952 92.0156 74.2872 92.5202 74.0948C93.0443 73.9023 93.5878 73.7291 93.7431 73.7098C93.9566 73.6906 94.5195 75.5576 96.1499 81.6783ZM25.5165 83.9303C25.9435 84.0266 26.7199 84.296 27.2246 84.5078C28.0204 84.8542 28.1563 84.9697 28.0398 85.3162C27.9622 85.5471 27.7875 86.1438 27.6322 86.6635C27.4963 87.1832 27.3216 87.6451 27.2828 87.6836C27.244 87.7221 26.7393 87.5296 26.157 87.2217C25.2253 86.7212 24.9536 86.6827 23.0902 86.6827C21.2268 86.6827 20.9551 86.7405 19.907 87.2409C15.2873 89.4929 14.3362 95.6522 18.0824 99.0013C20.4893 101.138 23.5172 101.561 26.3705 100.137C27.671 99.4824 27.7875 99.4632 29.6314 99.5209L31.5336 99.5787L30.272 100.849C26.1764 104.949 19.674 104.872 15.6755 100.657C14.278 99.213 13.5404 97.8656 13.094 95.9794C11.3665 88.7037 18.1795 82.0826 25.5165 83.9303ZM101.662 85.2584C105.312 87.6644 107.039 91.8796 106.068 95.9986C105.117 99.9444 101.759 103.063 97.6639 103.755C92.5396 104.622 87.3183 101.099 86.1731 95.9986C85.8237 94.4396 85.9984 91.5717 86.5419 90.2051C87.0078 88.9925 88.0947 87.2602 88.3859 87.2602C88.5023 87.2602 88.7741 88.0301 89.0264 88.9925C89.434 90.6478 89.4534 90.7633 89.1623 91.6679C88.6964 93.0537 88.8711 95.4212 89.5311 96.807C90.2298 98.2506 91.6274 99.6172 93.1608 100.329C94.2671 100.849 94.6165 100.926 96.0723 100.907C98.188 100.888 99.5661 100.387 100.983 99.0975C103.972 96.3836 104.205 92.1491 101.565 88.9347C101.08 88.338 100.75 87.6259 100.42 86.4325C100.168 85.5086 99.9543 84.7002 99.9543 84.6232C99.9543 84.296 100.556 84.5078 101.662 85.2584ZM60.8623 85.3547C61.6387 85.7204 62.2598 86.5095 62.4151 87.3372L62.551 87.9338H46.3824C31.7277 87.9338 30.2331 87.9146 30.3496 87.6259C30.4078 87.4527 30.4661 87.2024 30.4661 87.0677C30.4661 86.6635 31.456 85.6049 32.1159 85.3162C32.5818 85.1044 35.4545 85.0659 46.4406 85.0467C58.7466 85.0467 60.28 85.0852 60.8623 85.3547ZM23.032 89.9933C22.1779 90.898 21.6539 92.3031 21.6539 93.7081C21.6539 95.248 21.945 96.1526 22.8379 97.3075L23.5172 98.1929L22.6244 98.0774C20.1981 97.7502 18.7423 96.0949 18.7423 93.7081C18.7423 92.3416 19.0141 91.6486 19.907 90.744C20.7222 89.9548 21.7121 89.4929 22.6826 89.4737H23.5561L23.032 89.9933ZM100.478 94.0354C100.265 96.0564 98.6732 97.7694 96.7516 98.0581C94.8883 98.3276 92.8502 97.1535 92.0932 95.4019C91.9379 94.9977 91.802 94.6513 91.802 94.6128C91.802 94.5743 92.2679 94.7475 92.8308 95.017C95.0241 96.0756 97.8192 95.5174 99.469 93.6697C99.8961 93.2077 100.323 92.8612 100.42 92.8997C100.517 92.9575 100.537 93.4579 100.478 94.0354Z" fill="white"/>
</svg>
