<svg width="120" height="120" viewBox="0 0 120 120" fill="none" xmlns="http://www.w3.org/2000/svg">
<path d="M59.2567 5.05128C57.4938 6.22357 54.1806 9.6765 52.8 11.7866C51.2921 14.0886 50.0602 16.7955 49.3381 19.5451C48.8284 21.442 48.7646 21.9962 48.7646 25.6836C48.7434 29.9252 48.8284 30.5859 49.8478 33.7831C51.016 37.4065 53.1823 40.966 55.9434 43.7369C56.9204 44.7174 58.0673 45.7618 58.4921 46.0388C59.4478 46.7209 59.4903 46.9767 59.4266 54.6712L59.3629 60.6392L57.3452 60.7884C48.7009 61.4491 40.0354 64.7102 33.1753 69.9323L31.7947 70.9767H27.8018H23.7876V69.1863C23.7876 66.3515 24.2974 66.5007 15.1009 66.5007C8.58057 66.5007 7.4549 66.5433 7.05136 66.8417L6.58411 67.1614V86.323V105.485L7.05136 105.804C7.4549 106.103 8.58057 106.145 15.1009 106.145C22.4284 106.145 22.6832 106.124 23.2354 105.698C23.7452 105.293 23.7876 105.122 23.7876 103.78C23.7876 102.97 23.8301 102.309 23.8938 102.309C23.9363 102.309 29.9894 103.566 37.3168 105.101C53.5434 108.469 54.754 108.703 58.5133 108.852C62.1664 108.98 64.885 108.618 67.7735 107.573C69.8337 106.849 70.3434 106.55 85.9115 97.3639C89.777 95.1046 97.3168 90.6499 102.669 87.4953C108.34 84.149 112.779 81.3994 113.267 80.9092C114.605 79.609 115.221 78.0317 115.221 75.9856C115.221 74.5362 115.115 74.0886 114.605 73.0229C113.076 69.8683 110.443 68.6534 106.789 69.3568C105.048 69.6978 103.073 70.4438 97.5292 72.8737C95.6177 73.7049 93.9611 74.387 93.8337 74.387C93.7062 74.387 92.8567 73.6623 91.9222 72.7884C84.7434 66.0104 74.3363 61.4705 64.5239 60.8097L62.4425 60.6818V53.6268V46.5717L63.2284 46.0388C64.4602 45.1863 67.2425 42.2875 68.4107 40.625C70.577 37.577 72.1487 33.7831 72.7646 30.1596C73.2744 27.2609 73.0832 22.2946 72.3611 19.5451C71.1505 14.9625 69.1753 11.5095 65.8407 8.09924C63.5469 5.75465 61.6142 4.26265 60.8496 4.26265C60.616 4.26265 59.8938 4.60368 59.2567 5.05128ZM63.5894 10.0602C66.7328 13.2786 68.3257 15.9856 69.4726 20.1632C70.1098 22.5504 70.2797 27.3035 69.7912 29.9252C68.9416 34.4225 66.6053 38.8559 63.4195 41.9891L62.4425 42.9269V27.8577C62.4425 11.6801 62.4425 11.5309 61.3806 11.1898C60.7009 10.9767 59.9363 11.2325 59.6602 11.7653C59.4691 12.1277 59.4053 16.0495 59.4053 27.1969C59.4266 35.9358 59.3416 42.2662 59.2354 42.4367C59.0868 42.6712 58.7682 42.458 57.8761 41.4989C53.6496 37.0015 51.6107 31.8861 51.6107 25.7476C51.6107 20.8026 53.0337 16.4118 55.8797 12.5753C57.1965 10.7849 60.3823 7.67295 60.8921 7.67295C61.062 7.67295 62.2726 8.75998 63.5894 10.0602ZM66.7965 64.0708C73.0195 64.9447 79.2638 67.2893 84.531 70.7635C86.6337 72.1703 89.0974 74.1099 90.1169 75.1756L90.6903 75.7937L86.4 77.6481C84.0213 78.6712 81.9611 79.5024 81.8337 79.5024C81.685 79.5024 81.3876 79.1401 81.154 78.6925C80.623 77.6268 79.0301 76.1774 77.777 75.6019C76.8 75.133 76.5452 75.133 63.7169 75.0264L50.6549 74.9198L45.8549 72.9376L41.0549 70.9767H38.9522L36.8496 70.9554L38.0177 70.2094C38.6549 69.7831 40.2903 68.8879 41.6496 68.2058C49.3168 64.3266 58.1522 62.8772 66.7965 64.0708ZM20.8142 86.323V103.161H19.5399H18.2655V92.2058C18.2655 85.7689 18.1806 81.0158 18.0531 80.696C17.6708 79.6943 16.4177 79.4598 15.6319 80.2698C15.3345 80.5682 15.2921 81.911 15.2921 91.8861V103.161H12.3186H9.34517V86.323V69.4847H15.0797H20.8142V86.323ZM110.315 72.6818C111.632 73.3213 112.248 74.3657 112.248 76.0069C112.248 78.2236 111.802 78.6499 106.513 81.6978C104.071 83.1046 96.616 87.538 89.9469 91.5451C83.2991 95.5735 76.0354 99.879 73.8266 101.137C66.2868 105.442 65.2036 105.804 59.6814 105.804C55.6461 105.804 54.5416 105.655 46.9381 104.057C44.7717 103.588 38.6761 102.33 33.4089 101.222L23.7876 99.2182V86.5788V73.9607H32.1345H40.4815L45.4301 75.9856L50.4 78.0104H63.0584C74.931 78.0104 75.7593 78.0531 76.5664 78.4154C80.0284 80.014 80.0708 84.5753 76.6301 86.3444C75.8868 86.728 75.2284 86.7493 64.2053 86.7493C54.9027 86.7493 52.2691 86.8133 51.1222 87.069C48.1912 87.6872 44.8142 89.9252 44.8142 91.2467C44.8142 91.5877 45.0053 92.0566 45.239 92.2911C45.8761 92.9305 46.7257 92.8239 47.7027 91.9927C48.5522 91.268 49.9115 90.5007 51.0797 90.0957C51.4832 89.9465 56.177 89.8186 64.2478 89.7333C76.4815 89.6268 76.8 89.6055 77.7558 89.1792C78.9452 88.625 80.3682 87.3674 81.0478 86.2804C81.3239 85.8328 81.7275 84.8523 81.9399 84.0637L82.3222 82.6356L89.0124 79.8008C92.6868 78.2236 97.6992 76.0708 100.142 74.9838C102.605 73.9181 105.175 72.8523 105.876 72.6605C107.639 72.149 109.253 72.149 110.315 72.6818Z" fill="white"/>
<path d="M50.5912 68.888C50.124 69.1224 49.7629 69.9537 49.8904 70.5505C50.0178 71.2326 50.6125 71.6162 51.547 71.6162C53.0762 71.6162 53.8196 70.38 52.9488 69.2929C52.5027 68.7601 51.2709 68.5469 50.5912 68.888Z" fill="white"/>
<path d="M62.2301 68.7811C61.1894 69.1648 60.8708 70.2305 61.508 71.147C61.9328 71.7652 63.6744 71.8291 64.2053 71.2323C65.3098 70.0174 63.8443 68.1843 62.2301 68.7811Z" fill="white"/>
<path d="M73.3381 68.8453C72.4035 69.229 72.1912 70.5079 72.977 71.2752C73.1681 71.4883 73.6779 71.6162 74.2301 71.6162C75.2283 71.6162 75.7381 71.2752 75.9504 70.4439C76.269 69.1864 74.7611 68.2699 73.3381 68.8453Z" fill="white"/>
<path d="M15.8656 72.2555C15.3346 72.6818 15.2921 72.831 15.2921 74.1738C15.2921 75.5166 15.3346 75.6658 15.8656 76.0921C16.2691 76.4118 16.6089 76.4971 16.9912 76.4118C17.947 76.1774 18.1594 75.7724 18.1594 74.1738C18.1594 72.5752 17.947 72.1703 16.9912 71.9358C16.6089 71.8506 16.2691 71.9358 15.8656 72.2555Z" fill="white"/>
<path d="M32.8354 38.0671C29.7557 38.6639 26.6124 40.1133 24.2761 41.9889C22.6619 43.2891 22.5982 43.6514 23.6389 46.0387C24.7009 48.4898 25.7841 50.0031 27.908 52.1346C31.7947 55.9925 36.1911 57.8042 41.7345 57.8042C45.9186 57.7829 49.6354 56.5893 53.0336 54.1594C55.6248 52.3264 55.6885 51.9854 54.0531 48.703C50.6973 41.9037 43.8159 37.6834 36.2124 37.7474C35.1717 37.7474 33.6425 37.8966 32.8354 38.0671ZM40.6726 41.2216C43.731 42.0529 47.1504 44.1843 48.9982 46.401C50.1026 47.7438 51.0796 49.2145 50.931 49.3424C50.8885 49.385 46.0885 48.1275 40.2478 46.5715C34.4071 44.9943 29.4584 43.6941 29.246 43.6941C28.7363 43.6941 27.823 44.6319 27.823 45.1861C27.823 46.2731 28.3327 46.4649 39.4619 49.449C45.3239 51.0262 50.1239 52.3903 50.1239 52.4543C50.1239 52.7314 47.3203 53.925 45.7062 54.3513C43.646 54.9054 40.0354 54.9694 37.954 54.4792C33.515 53.4348 29.6495 50.6213 27.3557 46.7633C25.9115 44.3122 25.9115 44.3761 27.3982 43.417C29.0124 42.3726 31.1363 41.4774 33.0265 41.0511C34.8743 40.6461 38.8248 40.7314 40.6726 41.2216Z" fill="white"/>
<path d="M82.0036 37.9608C75.8018 39.0479 70.4071 43.0976 67.6248 48.7246C66.4354 51.1544 66.2868 51.9218 66.9027 52.6891C67.4761 53.4351 70.5133 55.46 72.1275 56.1846C76.7363 58.2308 82.4496 58.3587 87.2071 56.5044C89.9257 55.4386 91.6885 54.245 93.9823 51.9218C96.2124 49.6624 97.4655 47.7441 98.3788 45.293C99.0372 43.46 98.8673 43.0763 96.8921 41.6056C94.9381 40.1562 92.4744 38.9626 90.1593 38.3445C88.2053 37.833 83.8726 37.6198 82.0036 37.9608ZM88.5239 41.0514C90.4991 41.4564 92.623 42.309 94.3009 43.4173C95.7876 44.3765 95.7876 44.3125 94.3434 46.7637C92.0921 50.5576 88.4814 53.2433 84.1062 54.3942C82.0036 54.9271 78.4142 54.9697 76.354 54.4582C74.8673 54.0958 71.5752 52.7104 71.5752 52.4546C71.5752 52.3694 76.3328 51.0479 82.1522 49.4919C87.9505 47.9147 92.9204 46.5079 93.1752 46.3374C94.1735 45.698 93.8974 44.0781 92.7292 43.7797C92.3257 43.6944 82.4283 46.2308 72.3398 49.023C71.5115 49.2575 70.8106 49.4067 70.7682 49.3427C70.6195 49.2148 71.554 47.7868 72.6584 46.4653C74.2726 44.5044 77.0974 42.5861 79.731 41.6269C82.2584 40.7104 85.7841 40.4759 88.5239 41.0514Z" fill="white"/>
</svg>
