<svg width="136" height="41" viewBox="0 0 136 41" fill="none" xmlns="http://www.w3.org/2000/svg">
<g clip-path="url(#clip0_146_892)">
<path d="M130.966 40.5002H5.18489C2.41764 40.5002 0.153564 38.2503 0.153564 35.5003V5.50088C0.153564 2.75092 2.41764 0.500977 5.18489 0.500977H130.966C133.733 0.500977 135.997 2.75092 135.997 5.50088V35.5003C135.997 38.2503 133.733 40.5002 130.966 40.5002Z" fill="#100F0D"/>
<path d="M130.966 0.500977H5.18489C2.41764 0.500977 0.153564 2.75092 0.153564 5.50088V35.5003C0.153564 38.2503 2.41764 40.5002 5.18489 40.5002H130.966C133.733 40.5002 135.997 38.2503 135.997 35.5003V5.50088C135.997 2.75092 133.733 0.500977 130.966 0.500977ZM130.966 1.30056C133.297 1.30056 135.192 3.18494 135.192 5.50088V35.5003C135.192 37.8163 133.297 39.7006 130.966 39.7006H5.18489C2.85439 39.7006 0.958999 37.8163 0.958999 35.5003V5.50088C0.958999 3.18494 2.85439 1.30056 5.18489 1.30056H130.966Z" fill="#100F0D"/>
<path d="M107.758 30.5007H109.636V17.9988H107.758V30.5007ZM124.671 22.5026L122.518 27.9224H122.454L120.22 22.5026H118.198L121.548 30.0777L119.638 34.2916H121.596L126.759 22.503L124.671 22.5026ZM114.022 29.0806C113.408 29.0806 112.55 28.7747 112.55 28.0189C112.55 27.054 113.618 26.6841 114.54 26.6841C115.365 26.6841 115.755 26.8607 116.256 27.1021C116.11 28.2603 115.107 29.0806 114.022 29.0806ZM114.249 22.2292C112.89 22.2292 111.482 22.8244 110.899 24.1432L112.566 24.8346C112.922 24.1432 113.585 23.9183 114.281 23.9183C115.252 23.9183 116.24 24.4968 116.256 25.5264V25.6549C115.916 25.4619 115.187 25.1725 114.297 25.1725C112.5 25.1725 110.672 26.1533 110.672 27.9869C110.672 29.6595 112.145 30.7372 113.795 30.7372C115.057 30.7372 115.755 30.1743 116.19 29.5146H116.256V30.4802H118.069V25.6869C118.069 23.4674 116.401 22.2292 114.249 22.2292ZM102.645 24.0244H99.974V19.7394H102.645C104.048 19.7394 104.845 20.8941 104.845 21.8819C104.845 22.8507 104.048 24.0244 102.645 24.0244ZM102.596 17.9991H98.0972V30.501H99.9741V25.7648H102.596C104.677 25.7648 106.723 24.2679 106.723 21.8824C106.723 19.4973 104.677 17.9991 102.596 17.9991ZM78.0628 29.0827C76.7656 29.0827 75.6799 28.003 75.6799 26.5214C75.6799 25.0226 76.7656 23.9277 78.0628 23.9277C79.3435 23.9277 80.3485 25.0227 80.3485 26.5214C80.3485 28.003 79.3435 29.0827 78.0628 29.0827ZM80.2188 23.2024H80.1539C79.7325 22.7031 78.9216 22.252 77.9008 22.252C75.7605 22.252 73.7991 24.1211 73.7991 26.5214C73.7991 28.9054 75.7605 30.7581 77.9008 30.7581C78.9216 30.7581 79.7325 30.3069 80.1539 29.7917H80.2188V30.4034C80.2188 32.0311 79.3435 32.9006 77.933 32.9006C76.7825 32.9006 76.0691 32.0791 75.777 31.3865L74.14 32.063C74.6097 33.1903 75.8577 34.5763 77.9331 34.5763C80.1383 34.5763 82.0026 33.2872 82.0026 30.1455V22.5097H80.2189L80.2188 23.2024ZM83.2997 30.5003H85.1794V17.9985H83.2997V30.5003ZM87.9518 26.3762C87.9034 24.7328 89.2331 23.8953 90.1891 23.8953C90.9352 23.8953 91.5668 24.266 91.7783 24.7972L87.9518 26.3762ZM93.7877 24.9582C93.4312 24.0082 92.3451 22.252 90.1242 22.252C87.9191 22.252 86.0874 23.9758 86.0874 26.5051C86.0874 28.8894 87.9034 30.7581 90.3346 30.7581C92.296 30.7581 93.4312 29.5664 93.9016 28.8734L92.4426 27.9066C91.956 28.6156 91.2917 29.0828 90.3346 29.0828C89.3786 29.0828 88.6974 28.6477 88.2604 27.7938L93.9822 25.4419L93.7877 24.9582ZM48.196 23.557V25.3613H52.5405C52.4108 26.3762 52.0704 27.1172 51.5515 27.6328C50.9191 28.2609 49.9302 28.9538 48.1959 28.9538C45.521 28.9538 43.4299 26.8113 43.4299 24.1531C43.4299 21.495 45.521 19.3521 48.1959 19.3521C49.6388 19.3521 50.6923 19.9161 51.4705 20.6411L52.7515 19.3681C51.665 18.3372 50.2225 17.5479 48.1959 17.5479C44.5316 17.5479 41.4515 20.5122 41.4515 24.1531C41.4515 27.7937 44.5316 30.7581 48.1959 30.7581C50.1734 30.7581 51.6651 30.1136 52.8321 28.9055C54.0318 27.7133 54.4048 26.0379 54.4048 24.6844C54.4048 24.2661 54.3721 23.8794 54.3073 23.557H48.196ZM59.3447 29.0827C58.0475 29.0827 56.9288 28.0194 56.9288 26.5051C56.9288 24.9746 58.0475 23.9278 59.3447 23.9278C60.6413 23.9278 61.76 24.9746 61.76 26.5051C61.76 28.0194 60.6413 29.0827 59.3447 29.0827ZM59.3447 22.252C56.9771 22.252 55.0483 24.0402 55.0483 26.5051C55.0483 28.9538 56.9771 30.7581 59.3447 30.7581C61.7113 30.7581 63.6405 28.9538 63.6405 26.5051C63.6405 24.0402 61.7113 22.252 59.3447 22.252ZM68.716 29.0827C67.4197 29.0827 66.3007 28.0194 66.3007 26.5051C66.3007 24.9746 67.4198 23.9278 68.716 23.9278C70.0132 23.9278 71.1315 24.9746 71.1315 26.5051C71.1315 28.0194 70.0132 29.0827 68.716 29.0827ZM68.716 22.252C66.3493 22.252 64.4205 24.0402 64.4205 26.5051C64.4205 28.9538 66.3493 30.7581 68.716 30.7581C71.0835 30.7581 73.0124 28.9538 73.0124 26.5051C73.0124 24.0402 71.0835 22.252 68.716 22.252Z" fill="white"/>
<path d="M20.9977 19.924L10.2853 31.2235C10.2857 31.2259 10.2865 31.2278 10.2869 31.2302C10.6154 32.4572 11.7432 33.3607 13.0816 33.3607C13.6166 33.3607 14.1189 33.2169 14.5497 32.9646L14.5839 32.9447L26.6428 26.0296L20.9977 19.924Z" fill="#EB3131"/>
<path d="M31.8362 18.0004L31.8259 17.9934L26.6197 14.9941L20.7543 20.1809L26.6401 26.0292L31.8188 23.0598C32.7267 22.5727 33.3431 21.6215 33.3431 20.5246C33.3431 19.4356 32.7351 18.4891 31.8362 18.0004Z" fill="#F6B60B"/>
<path d="M10.2837 9.77734C10.2193 10.0133 10.1854 10.2605 10.1854 10.5172V30.4846C10.1854 30.7408 10.2189 30.9889 10.2841 31.224L21.3663 20.2132L10.2837 9.77734Z" fill="#5778C5"/>
<path d="M21.0769 20.5015L26.622 14.9927L14.5768 8.0526C14.1389 7.792 13.6279 7.6416 13.0811 7.6416C11.7427 7.6416 10.6134 8.54671 10.2848 9.77514C10.2844 9.77634 10.2844 9.77716 10.2844 9.77821L21.0769 20.5015Z" fill="#3BAD49"/>
<path d="M47.8437 10.2819H44.9083V11.0038H47.108C47.0482 11.5928 46.8123 12.0553 46.4145 12.3913C46.0168 12.7273 45.5089 12.896 44.9083 12.896C44.2495 12.896 43.6913 12.6679 43.2339 12.2148C42.7857 11.7523 42.5578 11.1804 42.5578 10.4913C42.5578 9.80235 42.7857 9.23043 43.2339 8.76798C43.6913 8.31488 44.2495 8.08829 44.9083 8.08829C45.2464 8.08829 45.5687 8.1461 45.8642 8.27269C46.1598 8.39919 46.3972 8.57578 46.5828 8.80238L47.141 8.24769C46.8878 7.9617 46.5671 7.743 46.1692 7.58361C45.7714 7.42421 45.3563 7.34771 44.9082 7.34771C44.0293 7.34771 43.2841 7.6508 42.6756 8.25551C42.0671 8.86171 41.7621 9.6086 41.7621 10.4914C41.7621 11.3741 42.0671 12.1226 42.6756 12.7273C43.2841 13.3319 44.0293 13.6351 44.9082 13.6351C45.8311 13.6351 46.567 13.3414 47.133 12.7444C47.6314 12.2477 47.8861 11.5758 47.8861 10.7352C47.8861 10.593 47.8689 10.4413 47.8437 10.2819ZM48.9809 7.48195V13.5007H52.5169V12.7616H49.7592V10.8523H52.2466V10.1304H49.7592V8.22262H52.5169V7.48193L48.9809 7.48195ZM57.4753 8.22264V7.48195H53.3134V8.22264H55.0052V13.5006H55.7835V8.22264H57.4753ZM61.2432 7.48195H60.4649V13.5007H61.2432V7.48195ZM66.3803 8.22264V7.48195H62.2185V8.22264H63.9102V13.5006H64.6884V8.22264H66.3803ZM74.2338 8.26484C73.6332 7.65076 72.8974 7.34766 72.0185 7.34766C71.138 7.34766 70.4022 7.65075 69.8015 8.25546C69.2009 8.85235 68.9054 9.60075 68.9054 10.4913C68.9054 11.3819 69.2009 12.1304 69.8015 12.7273C70.4022 13.3319 71.138 13.6351 72.0185 13.6351C72.8895 13.6351 73.6332 13.3319 74.2338 12.7273C74.8345 12.1304 75.13 11.3819 75.13 10.4913C75.13 9.60855 74.8345 8.86162 74.2338 8.26484ZM70.3597 8.76793C70.8078 8.31483 71.3582 8.08824 72.0185 8.08824C72.6773 8.08824 73.2276 8.31484 73.6678 8.76793C74.1159 9.21322 74.336 9.79438 74.336 10.4913C74.336 11.1898 74.1159 11.7694 73.6678 12.2147C73.2276 12.6678 72.6772 12.8959 72.0185 12.8959C71.3581 12.8959 70.8078 12.6678 70.3597 12.2147C69.921 11.76 69.7009 11.1898 69.7009 10.4913C69.7009 9.7944 69.921 9.22258 70.3597 8.76793ZM76.9791 9.75231L76.9461 8.5913H76.9791L80.0576 13.5006H80.8705V7.48189H80.0922V11.0037L80.1252 12.1647H80.0922L77.1489 7.48189H76.2008V13.5006H76.9791V9.75231Z" fill="white" stroke="white" stroke-width="0.26666" stroke-miterlimit="10"/>
</g>
<defs>
<clipPath id="clip0_146_892">
<rect width="135.849" height="40" fill="white" transform="translate(0.150879 0.5)"/>
</clipPath>
</defs>
</svg>
