<svg width="24" height="24" viewBox="0 0 24 24" fill="none" xmlns="http://www.w3.org/2000/svg">
<path fill-rule="evenodd" clip-rule="evenodd" d="M20.9057 3.01894C20.6705 2.97872 20.4288 3.00282 20.2063 3.08867L20.2041 3.08957L2.83277 9.8811C1.59833 10.3631 1.78874 12.129 3.05745 12.3881L3.05978 12.3886L7.62207 13.3003V18.939C7.6225 19.199 7.70059 19.4531 7.84641 19.6688C7.99223 19.8846 8.19921 20.0523 8.44102 20.1507C8.68283 20.2491 8.94861 20.2738 9.20449 20.2214C9.45955 20.1693 9.69337 20.0431 9.87646 19.8587L12.4361 17.3106L16.2726 20.6709C16.4437 20.8215 16.651 20.9252 16.8744 20.972C17.098 21.0187 17.33 21.0068 17.5476 20.9374C17.7652 20.868 17.9609 20.7433 18.1155 20.5758C18.2701 20.4083 18.3783 20.2034 18.4295 19.9816L21.9677 4.60001L21.9685 4.59687C22.0203 4.36504 22.0081 4.12355 21.9329 3.89814C21.8576 3.67273 21.7224 3.47189 21.5415 3.31704C21.3606 3.16219 21.1408 3.05916 20.9057 3.01894ZM12.8045 16.136C12.7913 16.1232 12.7777 16.1113 12.7636 16.1001L9.09089 12.8833L20.8485 4.42963L17.3288 19.7304C17.3215 19.7621 17.306 19.7914 17.284 19.8153C17.2619 19.8392 17.2339 19.857 17.2028 19.867C17.1717 19.8769 17.1386 19.8786 17.1067 19.8718C17.0747 19.8652 17.0451 19.8503 17.0206 19.8288L12.8045 16.136ZM17.7927 5.24L3.24557 10.9274C3.19193 10.9484 3.16702 10.9761 3.15311 11.0004C3.13671 11.0289 3.12665 11.0691 3.1309 11.1151C3.13514 11.1611 3.15256 11.2003 3.1755 11.2275C3.19525 11.251 3.2263 11.2749 3.28347 11.2867L3.28437 11.2869L8.0562 12.2405L17.7927 5.24ZM8.75129 14.0832L11.5866 16.5666L9.07666 19.0652L9.07358 19.0683C9.04738 19.0947 9.01388 19.1128 8.97736 19.1203C8.94078 19.1278 8.90283 19.1242 8.86829 19.1101C8.83374 19.0961 8.80417 19.0721 8.78334 19.0413C8.76257 19.0106 8.75142 18.9744 8.75129 18.9374V14.0832Z" fill="#181818"/>
</svg>
