<svg width="24" height="24" viewBox="0 0 24 24" fill="none" xmlns="http://www.w3.org/2000/svg">
<path fill-rule="evenodd" clip-rule="evenodd" d="M3.66981 3.66834C3.34802 3.98786 3.34802 4.50589 3.66981 4.82541L10.8962 12.0005L3.67052 19.1749C3.34873 19.4944 3.34873 20.0124 3.67052 20.3319C3.99232 20.6514 4.51405 20.6514 4.83585 20.3319L12.0615 13.1575L19.164 20.2096C19.4858 20.5291 20.0075 20.5291 20.3292 20.2096C20.651 19.8901 20.6512 19.3721 20.3292 19.0526L13.2268 12.0005L20.33 4.94768C20.6518 4.62817 20.6518 4.11014 20.33 3.79063C20.0082 3.47111 19.4864 3.47111 19.1646 3.79063L12.0615 10.8434L4.83514 3.66834C4.51334 3.34883 3.99161 3.34883 3.66981 3.66834Z" fill="#181818"/>
</svg>
