<svg width="52" height="53" viewBox="0 0 52 53" fill="none" xmlns="http://www.w3.org/2000/svg">
<g clip-path="url(#clip0_444_250)">
<path d="M44.2975 14.9491L48.6511 10.5726L44.0755 6.02038L39.6529 10.467C37.5067 8.90362 35.0843 7.69818 32.473 6.93972V3.98485C32.473 2.0635 30.9095 0.5 28.9872 0.5H23.0119C21.0906 0.5 19.527 2.0635 19.527 3.98485V6.93951C9.85269 9.74942 2.76074 18.6917 2.76074 29.2601C2.76074 42.075 13.1857 52.5 25.9994 52.5C38.8143 52.5 49.2393 42.075 49.2393 29.2601C49.2394 23.8667 47.3921 18.8969 44.2975 14.9491ZM47.0452 30.3434C46.7909 35.3389 44.7883 39.8804 41.6393 43.368L39.8523 41.581L38.3204 43.1128L40.1074 44.8999C36.6199 48.049 32.0782 50.0516 27.0828 50.3058V47.7678H24.9161V50.3058C19.9208 50.0516 15.3797 48.049 11.8925 44.9001L13.6798 43.1128L12.1479 41.581L10.3606 43.3683C7.21173 39.8807 5.2092 35.339 4.95493 30.3434H7.49285V28.1768H4.95493C5.20909 23.1813 7.21162 18.6399 10.3604 15.1526L12.1478 16.9393L13.6797 15.4073L11.8922 13.6208C15.3794 10.4721 19.9206 8.46969 24.916 8.21542V10.7536H27.0827V8.21553C32.0782 8.4698 36.6199 10.4722 40.1074 13.6211L38.3201 15.4074L39.8521 16.9394L41.6393 15.153C44.7883 18.6403 46.7908 23.1814 47.0451 28.1769H44.5071V30.3435L47.0452 30.3434ZM44.084 9.08414L45.5873 10.5811L42.8787 13.3035C42.3927 12.7896 41.8831 12.2984 41.3524 11.8304L44.084 9.08414ZM21.6937 3.98485C21.6937 3.25802 22.2852 2.6667 23.0119 2.6667H28.9872C29.715 2.6667 30.3064 3.25812 30.3064 3.98485V6.42301C28.9102 6.16036 27.4709 6.02134 25.9995 6.02134C24.5286 6.02134 23.0896 6.16036 21.6937 6.42291V3.98485Z" fill="#BF1023"/>
<path d="M35.1263 12.0083L36.982 13.1255L26.9274 29.8187L25.0718 28.7016L35.1263 12.0083Z" fill="#BF1023"/>
</g>
<defs>
<clipPath id="clip0_444_250">
<rect width="52" height="52" fill="white" transform="translate(0 0.5)"/>
</clipPath>
</defs>
</svg>
